<svg width="66" height="70" viewBox="0 0 66 70" fill="none" xmlns="http://www.w3.org/2000/svg">
<path d="M42.9719 24.753C50.1724 24.753 57.3946 24.753 64.7908 24.753C64.7908 28.1097 64.7908 31.3099 64.7908 34.7015C57.5425 34.7015 50.3289 34.7015 42.8805 34.7015C42.8805 46.498 42.8805 58.1119 42.8805 69.891C39.4455 69.891 36.2453 69.891 32.8233 69.891C32.8233 69.217 32.8233 68.5865 32.8233 67.956C32.8233 53.5463 32.8059 39.1322 32.832 24.7225C32.845 18.3655 34.5452 12.5738 38.8542 7.73001C43.1284 2.92967 48.6157 0.564279 54.9118 0.12077C58.3512 -0.122726 61.8254 0.0772882 65.4083 0.0772882C65.4083 3.36448 65.4083 6.51253 65.4083 9.94321C63.0385 9.94321 60.734 9.8432 58.4469 9.97365C56.2946 10.0954 54.0727 10.1737 52.0247 10.7607C46.0156 12.4912 42.3501 18.2481 42.9719 24.753Z" fill="#FFC900"/>
<path d="M25.7283 69.9038C12.4056 71.0778 0.704805 61.3728 0.27434 48.1544C-0.190911 33.7621 0.0873701 19.3437 0.0395406 4.93395C0.0351925 3.36427 0.0395406 1.79024 0.0395406 0.116211C3.37891 0.116211 6.46609 0.116211 9.82285 0.116211C9.82285 6.66885 9.82285 13.2084 9.82285 19.9611C15.1145 19.9611 20.1453 19.9611 25.324 19.9611C25.324 23.3744 25.324 26.5746 25.324 30.0096C20.1932 30.0096 15.1624 30.0096 10.3272 30.0096C10.3272 36.5927 9.81415 42.9888 10.4707 49.2632C11.136 55.5941 16.3233 59.5726 22.8194 60.0335C23.7456 60.0987 24.6717 60.1379 25.724 60.1944C25.7283 63.4555 25.7283 66.6036 25.7283 69.9038Z" fill="#FFC900"/>
</svg>
