<svg width="31" height="30" viewBox="0 0 31 30" fill="none" xmlns="http://www.w3.org/2000/svg">
<path d="M29.5601 14.9997C29.3373 14.9388 29.2429 14.7786 29.2087 14.5504C29.0474 13.4815 28.6304 12.5246 27.985 11.6769C27.3424 10.8335 26.5439 10.1984 25.5868 9.78446C25.1411 9.59167 24.6776 9.45984 24.1977 9.39888C22.6458 9.20326 21.2223 9.51195 20 10.5C18.9062 11.3832 19.3446 10.6094 19 12C18.9563 12.1758 18.6339 11.7258 18.6079 11.9044C18.5902 11.9044 19.5884 9.27417 18.5908 11.9505C19.7089 8.95078 19 11 18 11.5C18.983 10.8932 18.538 11.3986 18.5 11C19.3081 10.0134 20.2641 9.40597 21.4495 8.9892C21.4727 8.9807 21.496 8.97219 21.5178 8.96369C20.1014 8.04935 19.3603 6.74376 19.4314 4.99872C19.4792 3.84197 19.9469 2.86668 20.7754 2.09127C22.4777 0.497908 25.1056 0.665183 26.6014 2.48961C27.4327 3.50459 27.7389 4.68685 27.5147 5.99811C27.2905 7.31079 26.5808 8.279 25.4843 8.95801C25.6443 9.02039 25.8042 9.07851 25.9601 9.14513C26.9623 9.57183 27.8114 10.2182 28.5169 11.0688C29.2498 11.9534 29.7174 12.9726 29.9375 14.1137C29.9621 14.2442 29.9799 14.376 29.9977 14.5078C30.0291 14.7488 29.8814 14.9501 29.6463 14.987C29.6353 14.9884 29.6258 14.9941 29.6148 14.9983C29.597 14.9997 29.5793 14.9997 29.5601 14.9997ZM23.6234 8.64331C23.7547 8.62488 24.0063 8.60646 24.2483 8.54975C25.07 8.35696 25.7427 7.91042 26.2486 7.21156C26.8119 6.43331 27.0225 5.55866 26.8338 4.60038C26.641 3.6265 26.1255 2.85959 25.3312 2.30957C24.4192 1.67733 23.432 1.52707 22.397 1.92683C21.4385 2.29682 20.7645 2.99285 20.3625 3.9653C20.115 4.56352 20.0453 5.18867 20.1643 5.83084C20.301 6.56514 20.6442 7.18463 21.176 7.68787C21.8337 8.31302 22.613 8.6263 23.6234 8.64331Z" fill="#6D6D6D" stroke="#6D6D6D" stroke-width="0.3"/>
<path d="M12.4821 11.3967C12.2592 11.3357 12.0342 11.7282 12 11.5C11.8387 10.4311 12.6245 12.5246 11.9792 11.6769C11.3366 10.8335 10.5381 10.1984 9.58098 9.78446C9.13525 9.59167 8.67175 9.45984 8.19184 9.39888C6.63999 9.20326 5.25631 9.63845 4.03397 10.6265C2.94016 11.5097 2.22781 12.6579 1.88326 14.0485C1.8395 14.2243 1.80806 14.4044 1.78208 14.583C1.75063 14.8041 1.64125 14.9459 1.43069 14.9997C1.41292 14.9997 1.39514 14.9997 1.376 14.9997C1.35002 14.9926 1.32404 14.987 1.29943 14.9785C1.09434 14.9203 1 14.4937 1 14.4937C1.17638 13.2207 1.65082 12.0838 2.45614 11.1014C3.2642 10.1148 4.2582 9.40597 5.44363 8.9892C5.46687 8.9807 5.49011 8.97219 5.51199 8.96369C4.0955 8.04935 3.35444 6.74376 3.42554 4.99872C3.47339 3.84197 3.941 2.86668 4.76956 2.09127C6.47181 0.497908 9.0997 0.665183 10.5955 2.48961C11.4268 3.50459 11.7331 4.68685 11.5088 5.99811C11.2846 7.31079 10.575 8.279 9.47844 8.95801C9.63841 9.02039 9.79838 9.07851 9.95425 9.14513C10.9565 9.57183 11.8055 10.2182 12.511 11.0688C13.2439 11.9534 12.2799 10.3588 12.5 11.5C12.4822 11.3682 12.5246 11.6304 12.5 11.5C12.7352 11.4631 12.5314 11.741 12.5 11.5C12.4891 11.5014 13.0753 11.0628 13 11.0688C12.9822 11.0702 12.5013 11.3967 12.4821 11.3967ZM7.61758 8.64331C7.74884 8.62488 8.00042 8.60646 8.24243 8.54975C9.06416 8.35696 9.73685 7.91042 10.2427 7.21156C10.8061 6.43331 11.0166 5.55866 10.8279 4.60038C10.6351 3.6265 10.1197 2.85959 9.3253 2.30957C8.41333 1.67733 7.42617 1.52707 6.39114 1.92683C5.43269 2.29682 4.75862 2.99285 4.35665 3.9653C4.10917 4.56352 4.03944 5.18867 4.15839 5.83084C4.29512 6.56514 4.6383 7.18463 5.17017 7.68787C5.82783 8.31302 6.60717 8.6263 7.61758 8.64331Z" fill="#6D6D6D"/>
<path d="M12.5 11.5C12.2799 10.3588 13.2439 11.9534 12.511 11.0688C11.8055 10.2182 10.9565 9.57183 9.95425 9.14513C9.79838 9.07851 9.63841 9.02039 9.47844 8.95801C10.575 8.279 11.2846 7.31079 11.5088 5.99811C11.7331 4.68685 11.4268 3.50459 10.5955 2.48961C9.0997 0.665183 6.47181 0.497908 4.76956 2.09127C3.941 2.86668 3.47339 3.84197 3.42554 4.99872C3.35444 6.74376 4.0955 8.04935 5.51199 8.96369C5.49011 8.97219 5.46687 8.9807 5.44363 8.9892C4.2582 9.40597 3.2642 10.1148 2.45614 11.1014C1.65082 12.0838 1.17638 13.2207 1 14.4937C1 14.4937 1.09434 14.9203 1.29943 14.9785C1.32404 14.987 1.35002 14.9926 1.376 14.9997C1.39514 14.9997 1.41292 14.9997 1.43069 14.9997C1.64125 14.9459 1.75063 14.8041 1.78208 14.583C1.80806 14.4044 1.8395 14.2243 1.88326 14.0485C2.22781 12.6579 2.94016 11.5097 4.03397 10.6265C5.25631 9.63845 6.63999 9.20326 8.19184 9.39888C8.67175 9.45984 9.13525 9.59167 9.58098 9.78446C10.5381 10.1984 11.3366 10.8335 11.9792 11.6769C12.6245 12.5246 11.8387 10.4311 12 11.5C12.0342 11.7282 12.2592 11.3357 12.4821 11.3967C12.5013 11.3967 12.9822 11.0702 13 11.0688C13.0753 11.0628 12.4891 11.5014 12.5 11.5ZM12.5 11.5C12.5246 11.6304 12.4822 11.3682 12.5 11.5ZM12.5 11.5C12.5314 11.741 12.7352 11.4631 12.5 11.5ZM7.61758 8.64331C7.74884 8.62488 8.00042 8.60646 8.24243 8.54975C9.06416 8.35696 9.73685 7.91042 10.2427 7.21156C10.8061 6.43331 11.0166 5.55866 10.8279 4.60038C10.6351 3.6265 10.1197 2.85959 9.3253 2.30957C8.41333 1.67733 7.42617 1.52707 6.39114 1.92683C5.43269 2.29682 4.75862 2.99285 4.35665 3.9653C4.10917 4.56352 4.03944 5.18867 4.15839 5.83084C4.29512 6.56514 4.6383 7.18463 5.17017 7.68787C5.82783 8.31302 6.60717 8.6263 7.61758 8.64331Z" stroke="#6D6D6D" stroke-width="0.3"/>
<g clip-path="url(#clip0_2181_3)">
<path d="M24.357 29.9996C24.0313 29.9125 23.8934 29.6837 23.8435 29.3577C23.6077 27.8307 22.9982 26.4638 22.055 25.2528C21.1158 24.0478 19.9487 23.1406 18.5499 22.5492C17.8985 22.2738 17.221 22.0855 16.5196 21.9984C14.2515 21.7189 12.2292 22.3406 10.4427 23.7521C8.84409 25.0138 7.80296 26.6541 7.29939 28.6408C7.23544 28.8919 7.18948 29.1491 7.15151 29.4042C7.10555 29.7202 6.94569 29.9227 6.63795 29.9996C6.61197 29.9996 6.58599 29.9996 6.55801 29.9996C6.52004 29.9895 6.48208 29.9814 6.44611 29.9692C6.14636 29.8862 5.96451 29.5966 6.00848 29.2767C6.26626 27.4581 6.95967 25.834 8.13668 24.4306C9.31769 23.0211 10.7705 22.0085 12.503 21.4131C12.537 21.401 12.5709 21.3888 12.6029 21.3767C10.5327 20.0705 9.44958 18.2054 9.55349 15.7125C9.62343 14.06 10.3069 12.6667 11.5178 11.559C14.0057 9.28273 17.8465 9.52169 20.0327 12.128C21.2476 13.578 21.6953 15.2669 21.3675 17.1402C21.0398 19.0154 20.0027 20.3986 18.4 21.3686C18.6338 21.4577 18.8676 21.5407 19.0955 21.6359C20.5602 22.2455 21.8012 23.1689 22.8323 24.384C23.9034 25.6477 24.5868 27.1037 24.9086 28.7339C24.9445 28.9202 24.9705 29.1086 24.9965 29.2969C25.0424 29.6412 24.8266 29.9287 24.4829 29.9814C24.4669 29.9834 24.4529 29.9915 24.437 29.9976C24.411 29.9996 24.385 29.9996 24.357 29.9996ZM15.6803 20.919C15.8722 20.8927 16.2399 20.8664 16.5936 20.7854C17.7945 20.5099 18.7777 19.872 19.5171 18.8737C20.3404 17.7619 20.6481 16.5124 20.3724 15.1434C20.0906 13.7521 19.3373 12.6566 18.1762 11.8708C16.8434 10.9676 15.4006 10.753 13.8878 11.324C12.487 11.8526 11.5018 12.8469 10.9143 14.2361C10.5526 15.0907 10.4507 15.9838 10.6246 16.9012C10.8244 17.9502 11.326 18.8352 12.1033 19.5541C13.0645 20.4472 14.2036 20.8947 15.6803 20.919Z" fill="#6D6D6D"/>
</g>
<defs>
<clipPath id="clip0_2181_3">
<rect width="19" height="20" fill="white" transform="translate(6 9.99951)"/>
</clipPath>
</defs>
</svg>
