<svg width="454" height="149" viewBox="0 0 454 149" fill="none" xmlns="http://www.w3.org/2000/svg">
<path d="M436.953 51.4112C433.281 51.125 429.598 50.9183 425.955 50.5208C421.428 50.0199 419.375 48.6603 419.444 46.4817C419.523 44.2555 421.752 43.0231 426.348 43.0311C432.76 43.039 439.192 43.1026 445.595 43.3888C452.42 43.6989 455.091 46.3624 453.599 51.6418C452.243 56.4362 451.183 61.2464 450.319 66.1044C450.093 67.3685 449.828 68.6725 448.747 69.8253C446.283 69.6743 445.772 68.0603 445.153 66.5973C444.201 64.387 444.22 62.0654 444.053 59.7517C443.916 57.7958 444.377 55.7285 442.954 53.9476C440.862 53.9714 440.204 55.3549 439.143 56.2374C402.269 87.023 360.199 111.933 312.031 129.942C284.25 140.325 255.222 146.98 224.612 148.65C197.224 150.145 170.572 146.766 144.45 140.182C103.313 129.814 70.3962 110.009 42.9587 83.4293C26.8438 67.8138 15.4426 50.155 5.3573 31.7727C1.46852 24.6805 -0.377674 17.2147 0.064233 9.42291C0.172255 7.55446 0.349026 5.67008 0.732012 3.82549C1.0659 2.21942 0.869488 -0.165817 3.82536 0.00910103C6.6732 0.176068 6.14292 2.56131 6.48663 4.17533C6.72231 5.30435 6.69285 6.47314 6.73213 7.62601C7.0071 16.1095 9.18717 24.1876 13.9303 31.8363C20.4804 42.4189 26.6278 53.2002 34.8178 63.0194C45.3254 75.6295 57.8166 86.9276 71.8398 97.0729C114.116 127.652 164.002 141.192 220.213 139.594C248.279 138.799 275.088 132.875 300.915 123.955C335.128 112.132 366.052 96.0154 394.874 77.1004C408.436 68.2113 421.742 59.0361 436.953 51.4112Z" fill="#F3CC4B"/>
</svg>
