<svg width="38" height="41" viewBox="0 0 38 41" fill="none" xmlns="http://www.w3.org/2000/svg">
<path d="M20.6265 39.9518C18.9959 39.1195 17.999 37.7379 17.7035 35.8691C17.5388 34.8291 17.4982 33.7703 17.3806 32.7215C17.2137 31.2476 16.8642 29.8466 15.8502 28.7C14.9033 27.6324 14.5005 27.6207 13.4289 28.6067C11.0337 30.8111 8.22219 31.7541 5.02585 31.3928C4.05166 31.283 3.10154 31.0192 2.27774 30.4506C-0.458252 28.5553 -0.706712 25.3322 1.67627 22.7827C2.3844 22.025 3.24469 21.4778 4.09433 20.9034C5.98828 19.6283 7.91514 18.4096 9.63974 16.8932C11.328 15.413 11.9673 13.7269 11.2482 11.5096C10.4858 9.15338 10.2161 6.72852 11.0239 4.27644C11.7584 2.04621 13.2171 0.73352 15.2062 0.619434C17.3958 0.49347 18.8513 1.59551 19.7602 3.50806C20.1372 4.30267 20.4566 5.12611 20.776 5.94957C21.3238 7.35042 22.0696 8.62667 23.0095 9.79335C24.2695 11.3597 25.8422 12.315 27.88 12.5485C31.1706 12.9307 34.0502 14.1922 36.2336 16.7836C36.647 17.2764 37.0105 17.8067 37.2685 18.3999C37.8643 19.7667 37.5999 21.0937 36.5175 22.1466C35.4006 23.2323 33.9917 23.7407 32.5498 24.1542C31.4717 24.4639 30.3779 24.701 29.296 24.9787C28.5993 25.16 27.953 25.4669 27.3626 25.8811C26.2879 26.6383 26.0166 27.5246 26.5419 28.7247C26.9091 29.5611 27.373 30.3512 27.7554 31.1829C28.7068 33.2512 29.0458 35.3835 28.337 37.6362C27.5225 40.226 25.9784 41.2356 23.3404 40.8713C22.3918 40.7453 21.503 40.4459 20.6265 39.9518ZM21.8534 37.5672C22.4213 37.8906 22.952 38.0954 23.5248 38.1987C24.9519 38.4541 25.3874 38.1706 25.822 36.7468C26.3233 35.0978 25.9314 33.5797 25.2499 32.0982C24.8243 31.1746 24.3243 30.2794 23.9813 29.3275C23.2719 27.3426 23.7847 25.5626 25.3756 24.1455C26.4528 23.1883 27.7272 22.6631 29.0906 22.3015C30.3362 21.9707 31.6048 21.6909 32.8172 21.265C35.281 20.3958 35.4239 19.6459 33.558 17.8813C31.8675 16.2842 29.783 15.5585 27.5332 15.2877C24.8007 14.9581 22.6631 13.6424 20.936 11.55C19.5884 9.9192 18.5712 8.09817 17.7996 6.12678C17.5409 5.46456 17.2977 4.78929 16.847 4.22492C15.93 3.07058 14.4779 3.17435 13.7647 4.47348C13.0765 5.72615 12.9741 7.08911 13.2015 8.45852C13.3963 9.63037 13.6966 10.7863 13.977 11.9401C14.4962 14.0667 13.8774 15.9181 12.5587 17.589C11.8557 18.4781 11.0114 19.2224 10.103 19.8979C8.37701 21.1822 6.58966 22.3691 4.75961 23.4944C4.1473 23.8711 3.56197 24.2838 3.09296 24.8407C2.04025 26.081 2.16013 27.3838 3.39701 28.4065C3.94182 28.8588 4.60198 28.9877 5.26603 29.1017C8.24177 29.6139 10.4889 28.208 12.5354 26.2354C14.0185 24.8073 15.5804 24.797 17.0768 26.191C18.3461 27.3725 19.1469 28.8283 19.5619 30.5303C19.9173 31.9987 19.9095 33.5069 20.1112 34.9867C20.2788 36.1696 20.76 37.1232 21.8534 37.5672Z" fill="#1FA3FF"/>
</svg>
