<svg width="70" height="53" viewBox="0 0 70 53" fill="none" xmlns="http://www.w3.org/2000/svg">
<path d="M2.73224 44.9001C2.33319 45.7335 2.34586 46.5733 2.72591 47.4131C2.83359 48.1568 2.83359 48.9389 3.47335 49.4902C3.54936 50.0287 3.21998 50.3235 2.82092 50.58C2.02281 50.6313 1.33872 50.3877 0.787642 49.7851C0.787642 49.7851 0.806644 49.7851 0.806644 49.7915C0.762305 49.0286 0.610284 48.3106 0.0908787 47.7208C-0.2385 45.7271 0.432926 43.7847 0.43926 41.8102C0.990336 41.214 1.16769 40.496 1.05368 39.7011C1.45273 39.137 1.59842 38.5087 1.52241 37.8228C2.36486 37.4446 2.44087 36.6561 2.52955 35.874C2.83993 35.7393 2.82092 35.4444 2.8716 35.1816C3.24531 34.9893 3.40367 34.6431 3.6127 34.2905C5.15825 31.6429 6.70379 28.9953 8.52171 26.5272C8.9081 25.9952 9.60486 25.6233 9.49084 24.7964L9.50351 24.7771C10.517 24.3861 11.0554 23.5463 11.4988 22.6167L11.4861 22.6232C12.4616 21.8282 13.38 20.982 13.9628 19.8217C14.0578 19.7191 14.1528 19.6102 14.2478 19.5076C16.5535 17.1613 18.8591 14.8214 21.1648 12.4751L21.1585 12.4815C21.7539 12.2507 22.1973 11.8148 22.685 11.4109C26.6439 8.17357 30.6724 5.07724 35.3724 2.92326C37.9314 1.75011 40.6932 1.34624 43.2395 0.243608C43.8033 0.160269 44.367 0.0833384 44.9307 0C45.1271 0.269247 45.3868 0.243604 45.6592 0.160266C48.4209 0.211551 51.1889 0.00641614 53.9317 0.506446C54.261 0.570553 54.5904 0.628244 54.9261 0.692351C55.2428 0.993651 55.6292 0.903907 56.0093 0.897496C56.3196 1.02571 56.63 1.17315 56.9467 1.28213C63.3823 3.40405 68.3293 7.05171 69.8685 14.1932C70.0459 16.1741 70.0459 18.1549 69.8559 20.1358C69.7355 20.5205 69.5835 20.8987 69.4948 21.2897C66.5051 33.9636 58.619 42.6628 47.6861 48.9324C44.9497 50.503 41.998 51.5031 39.0716 52.5993C38.8436 52.6314 38.6219 52.6634 38.3938 52.6891C38.0518 52.6763 37.7034 52.6698 37.3614 52.657C36.2465 53.2019 35.0747 52.9391 33.9219 52.9199C32.541 52.3237 31.0145 52.1826 29.6906 51.3428C27.0619 49.6632 25.9154 47.0285 24.978 44.227C24.978 42.3744 24.978 40.5281 24.9716 38.6754C25.5734 38.31 25.301 37.6305 25.5101 37.1112C28.7405 28.9056 34.4603 23.8348 43.2268 22.5398C44.1516 22.5398 45.0701 22.5462 45.9949 22.5462C48.9086 23.2065 51.5753 24.2066 52.5888 27.4696C52.5888 28.1684 52.5888 28.8671 52.5825 29.5723C50.8849 33.5148 47.6481 35.6945 43.9173 37.3099C43.3092 37.3997 42.7074 37.5215 42.0993 37.5792C41.3139 37.6561 40.6488 37.5536 40.4968 36.5343C40.3701 35.6624 40.6298 35.1175 41.4786 34.8611C41.732 34.7842 41.96 34.6239 42.1944 34.4957C44.253 33.4572 45.7795 31.7391 47.5468 30.3223C49.0226 29.1364 48.5856 27.4183 46.7487 26.7773C46.2736 26.6106 45.7732 26.5272 45.2855 26.399C44.481 26.4183 43.6766 26.4311 42.8658 26.4503C42.283 26.3157 41.751 26.5144 41.1872 26.6619C38.4192 27.4055 36.1072 28.8351 34.0359 30.8608C31.2995 33.5277 29.0636 36.3996 28.6012 40.3614C27.9804 41.4576 28.6012 42.4897 28.7595 43.5411C29.4689 46.708 31.3882 48.5735 34.5743 49.0735C35.0557 49.0991 35.5624 49.2786 35.9932 48.894C38.3812 48.785 40.5791 47.9516 42.6948 46.9387C50.8152 43.0539 57.4155 37.3676 62.0458 29.5338C63.813 26.5465 65.1432 23.3155 65.5993 19.7897C65.5993 19.6679 65.6056 19.5396 65.6056 19.4178C65.9223 19.0076 66.2137 18.5909 65.973 18.0331C65.9603 17.3344 65.954 16.6356 65.9413 15.9369C65.9667 15.5971 66.068 15.2381 65.9983 14.9112C64.6808 8.57745 59.3917 5.3593 53.5706 4.08999C53.4503 4.0964 53.3299 4.10281 53.2096 4.10922C52.8865 3.92332 52.6331 3.57073 52.1897 3.69254C49.314 3.45534 46.4319 3.30148 43.5562 3.69894C43.2648 3.66689 42.9925 3.69894 42.8531 4.01948C42.2704 4.12846 41.6243 3.79511 41.0985 4.28231C37.4057 4.92979 34.2513 6.85298 31.1412 8.789C27.8157 10.8532 24.7943 13.3662 21.9376 16.0394C19.6763 18.1614 17.3136 20.2256 15.54 22.8347C15.3183 23.0783 15.0903 23.3155 14.8686 23.5591C13.8551 24.322 13.095 25.3092 12.4363 26.3862C12.4363 26.3862 12.4426 26.3798 12.4489 26.3798C9.69987 29.2069 7.7236 32.6045 5.72199 35.9573C4.1131 38.6882 3.06162 41.6884 2.73224 44.9001Z" fill="#1FA3FF"/>
</svg>
