<svg width="52" height="78" viewBox="0 0 52 78" fill="none" xmlns="http://www.w3.org/2000/svg">
<path d="M32.5863 25.1402C34.2737 26.965 35.4092 28.6336 36.3274 30.4417C36.7759 31.3302 37.382 31.6057 38.341 31.5347C41.0254 31.335 42.9987 30.0619 44.3427 27.7651C45.4732 25.8354 45.9612 23.6993 46.1879 21.5138C46.7111 16.5453 47.1384 11.5661 47.6528 6.59749C47.8191 4.98343 48.1032 3.3763 48.7309 1.85096C48.9526 1.3049 49.16 0.815349 49.8848 0.857318C50.6796 0.900809 50.4869 1.52182 50.5469 1.97782C51.5595 9.71213 51.4218 17.4609 50.0143 25.0989C48.9635 30.8035 45.6811 34.7851 39.5039 35.5648C38.4869 35.6913 38.706 36.2688 38.8505 36.8666C39.4706 39.5164 39.6046 42.2037 39.3187 44.8995C38.6264 51.4163 34.538 55.8701 28.096 56.9632C26.8454 57.1765 26.8985 57.7504 26.9661 58.6612C27.3552 64.502 25.8089 69.6712 21.5217 73.819C14.9121 80.2161 3.57454 77.2331 1.17613 68.4893C0.860128 67.337 0.732318 66.1756 0.919722 64.9948C1.04187 64.2018 1.31982 63.482 1.93094 62.9226C2.66262 62.2477 3.50479 61.9206 4.34727 62.5859C5.19402 63.2557 4.91257 64.3383 4.37717 64.8338C3.39546 65.7481 3.7218 66.6252 4.0338 67.5589C5.1795 70.9721 7.40931 73.1847 11.0646 73.7756C15.1992 74.4469 18.2613 72.7558 20.572 69.4307C23.0048 65.9203 23.536 61.997 23.1143 57.8562C23.0206 56.936 22.4409 56.8579 21.7668 56.6902C18.4138 55.8698 15.6789 54.1665 13.9312 51.09C13.0217 49.4875 12.477 47.7925 12.6526 45.9469C12.8512 43.8482 13.762 42.1716 15.8382 41.3904C17.5222 40.7537 19.308 41.4657 20.8377 43.3046C23.0149 45.9271 24.5942 48.8994 25.6437 52.1138C26.0494 53.3599 26.6539 53.5085 27.7306 53.2565C31.4479 52.4016 33.9526 50.2087 34.9207 46.5003C35.8176 43.0484 35.4726 39.6045 34.4491 36.2026C34.1759 35.2917 33.5518 35.042 32.7705 34.7802C29.5498 33.7047 26.7436 32.0611 24.9914 28.9976C24.8271 28.7098 24.6764 28.4005 24.5564 28.0875C23.9189 26.4385 23.6662 24.7891 24.9959 23.3533C26.0792 22.1877 27.9033 22.1442 29.8629 23.1093C31.0173 23.7071 32.0231 24.4984 32.5863 25.1402ZM21.9022 52.872C21.5191 51.9892 21.2849 51.2977 20.9356 50.6737C20.0941 49.1602 19.2348 47.655 18.3224 46.1837C17.9591 45.5987 17.5686 44.6546 16.7302 45.0124C15.9226 45.3577 16.0412 46.3396 16.1334 47.1242C16.4644 49.8028 18.5767 51.9909 21.9022 52.872ZM28.3287 27.1201C28.9583 28.1262 29.5785 29.1584 30.8881 29.4535C30.13 28.5277 29.3927 27.6504 28.3287 27.1201Z" fill="#1FA3FF"/>
</svg>
