<svg width="69" height="57" viewBox="0 0 69 57" fill="none" xmlns="http://www.w3.org/2000/svg">
<path d="M53.9498 27.8925C56.3549 31.043 57.8771 34.3836 57.6304 38.5779C57.3984 42.4542 54.1683 45.2475 49.9965 44.5966C45.7404 43.9282 42.1657 41.7223 38.935 38.9496C33.5105 34.2808 28.8019 28.9603 24.9498 22.9056C23.2434 20.2285 21.7721 17.3781 21.939 14.0049C22.0674 11.3296 24.0241 9.64933 26.6472 9.5597C32.3875 9.3525 37.4506 11.5291 42.5358 13.7606C49.7358 16.9237 55.5372 21.9811 60.8404 27.6098C65.5106 32.5724 68.1992 38.6014 68.1316 45.5089C68.048 53.8445 63.3247 57.2259 54.9326 55.6823C48.0992 54.4214 42.1244 50.9361 36.8991 46.3183C31.757 41.78 27.1906 36.6489 22.5216 31.6319C14.953 23.508 7.62038 15.1718 1.58294 5.78522C0.107236 3.48589 -0.0836751 2.70538 0.175377 0.74707C4.0893 5.74735 8.55237 9.96792 12.5983 14.5752C18.6597 21.4782 24.8781 28.2527 31.5304 34.5787C36.0155 38.8464 40.4282 43.2521 45.9278 46.269C50.1096 48.5582 54.2759 50.8547 59.2634 50.8716C61.6607 50.8857 63.4077 49.2707 63.6714 46.7536C64.4025 39.8218 61.8663 34.2231 56.9823 29.512C56.288 28.8368 55.641 28.1084 54.9782 27.4028C48.2541 20.4852 40.2228 15.8677 30.8664 13.6507C29.3556 13.2913 27.3853 12.4483 26.3514 13.8849C25.3415 15.2832 26.5676 17.0104 27.3779 18.3712C31.8313 25.8288 37.543 32.1573 44.4905 37.3332C46.2956 38.6772 48.3319 39.677 50.5828 40.0371C52.9641 40.4235 54.1908 39.3327 54.1442 36.9018C54.1302 36.1407 54.056 35.3085 53.755 34.6264C51.551 29.6949 48.1343 25.9166 43.1083 23.8029C42.0466 23.3526 40.5963 22.6995 39.8314 23.8238C39.1622 24.8027 40.5395 25.6249 41.0917 26.4522C41.5171 27.0904 42.0755 27.6383 42.5868 28.2241C44.3466 30.2269 46.1219 32.2224 47.8816 34.233C48.4078 34.8423 48.8699 35.5589 48.1985 36.2894C47.6218 36.921 46.9052 36.5558 46.2725 36.2314C45.8381 36.0044 45.3802 35.7925 45.0091 35.4893C42.1245 33.1046 39.5942 30.386 37.4101 27.3491C36.2883 25.7796 35.7492 24.0055 36.8372 22.2129C37.9175 20.4202 39.7658 20.1583 41.6506 20.3396C44.3815 20.6016 46.7362 21.8491 48.8502 23.5182C50.6157 24.9156 52.255 26.4345 53.9498 27.8925Z" fill="#1FA3FF"/>
</svg>
