<svg width="57" height="61" viewBox="0 0 57 61" fill="none" xmlns="http://www.w3.org/2000/svg">
<path d="M20.6754 1.20523C24.4633 2.2074 26.2449 4.53592 26.7217 7.91349C26.9103 9.25913 26.91 10.6299 27.0658 11.9844C27.1825 13.0227 27.2929 14.0831 27.6047 15.074C28.2744 17.1943 29.3897 17.8465 31.593 17.4011C34.5985 16.7963 37.567 16.0195 40.5785 15.4583C43.914 14.8437 47.2094 14.9602 50.327 16.5837C52.7876 17.8683 54.4743 19.8411 55.5529 22.3209C56.6708 24.8775 56.2168 27.2233 54.4193 29.3442C52.6217 31.4652 50.2611 32.8664 48.0034 34.3981C44.4578 36.8099 42.4403 39.959 42.631 44.4062C42.7537 47.3797 42.6338 50.3754 41.2706 53.1562C39.8909 55.9743 37.8694 58.2244 35.0656 59.6278C29.9453 62.1872 25.5108 60.4601 23.383 55.1555C22.7778 53.6518 22.4441 52.0442 21.9746 50.4885C21.7792 49.8414 21.6171 49.1617 21.3116 48.5617C20.4454 46.8415 19.1006 46.4906 17.5531 47.6276C15.7304 48.9692 13.9423 50.3385 11.8275 51.2275C9.15484 52.3562 6.47608 52.4415 3.82922 51.1947C0.920703 49.8211 -0.191328 46.1348 1.05834 42.7177C2.12926 39.7896 4.07534 37.6143 6.60008 35.8637C11.3128 32.592 12.9508 28.1517 11.2422 22.7785C9.57226 17.5058 8.91284 12.2395 10.5843 6.8747C12.1942 1.7741 15.7918 -0.150277 20.6754 1.20523ZM4.85592 43.968C4.03027 46.8208 5.32931 48.3144 8.34383 47.9815C9.46365 47.8567 10.4945 47.4856 11.492 46.9735C13.0054 46.1981 14.2954 45.115 15.6909 44.1751C17.354 43.0583 19.1309 42.6857 21.1162 43.305C23.8899 44.1621 25.105 46.2609 25.7583 48.8316C26.2671 50.8113 26.6193 52.8311 27.7186 54.6282C29.0482 56.7948 30.6423 57.317 32.9301 56.2427C33.8434 55.8149 34.6277 55.2194 35.358 54.5131C38.0014 51.9455 38.3789 48.6564 38.4026 45.2448C38.4148 43.2008 38.3569 41.1254 39.0642 39.1973C40.4395 35.4382 42.9645 32.5562 46.2988 30.337C47.9142 29.2608 49.5684 28.2194 50.8982 26.7762C51.6713 25.9381 52.0379 24.9927 51.5913 23.8984C50.7654 21.8602 49.4316 20.339 47.2148 19.6371C44.5189 18.7838 41.8742 19.1599 39.2224 19.7137C36.7385 20.2305 34.2825 20.8867 31.7759 21.2894C28.1636 21.8748 25.6182 20.351 24.186 17.0303C23.4417 15.3082 23.1918 13.5085 23.0817 11.6639C22.9848 10.0984 23.0055 8.52372 22.5226 6.99427C21.8926 4.99275 20.172 4.72858 18.483 4.50316C16.9465 4.29629 15.6994 4.76876 14.9513 6.27828C14.2432 7.70919 13.7704 9.18773 13.6335 10.7659C13.3419 14.0729 13.6077 17.3378 14.4189 20.5811C15.1308 23.4196 16.0769 26.3533 15.5136 29.2434C14.7411 33.1886 12.7543 36.5318 9.14924 38.7654C7.16508 39.9903 5.46557 41.5638 4.85592 43.968Z" fill="#4EA0F7"/>
</svg>
