<svg width="83" height="90" viewBox="0 0 83 90" fill="none" xmlns="http://www.w3.org/2000/svg">
<path d="M47.386 2.89889C47.6412 0.897341 49.1982 0.943109 50.4804 0.916945C54.0982 0.858076 57.6505 1.47948 61.157 2.31673C66.3448 3.55297 71.3495 5.29942 76.0205 7.92236C80.6457 10.5191 82.6215 14.6857 82.942 19.7615C83.3084 25.6157 81.9149 31.1363 79.442 36.4084C73.5411 48.9802 65.743 60.2045 55.3935 69.5254C49.6954 74.6601 43.6178 79.3304 36.8861 83.098C32.902 85.3219 28.8459 87.3431 24.4431 88.5793C18.745 90.1753 13.1123 90.7706 7.54507 87.886C3.58714 85.8387 1.69648 82.457 0.623591 78.3885C-0.782947 73.0706 0.322643 68.1126 2.61235 63.2722C5.37309 57.4246 9.37684 52.4861 13.7535 47.8159C21.2964 39.777 29.7095 32.7519 38.8748 26.6557C42.944 23.9478 47.2225 21.4884 52.2403 20.9782C58.9458 20.2979 63.3355 24.1309 62.7795 31.2868C62.2103 38.6388 58.2982 44.2641 53.6599 49.4838C48.3739 55.423 42.2309 60.368 35.1917 64.1357C32.6207 65.5093 29.8534 66.4315 26.9945 66.8828C24.5805 67.2688 22.0357 65.4831 22.3301 62.0033C22.5983 58.8571 24.417 56.45 26.131 53.9971C29.8534 48.6727 34.5506 44.2445 39.1562 39.7116C41.2235 37.6773 43.1533 35.5646 46.0318 34.6946C48.3608 33.9948 50.6113 35.0086 51.3571 37.2456C51.7496 38.4295 50.4739 38.75 49.8851 38.593C46.4963 37.7166 44.8674 40.2087 42.9898 42.0794C38.2076 46.8478 33.7328 51.8974 29.5982 57.2414C28.8328 58.2291 28.1786 59.2822 27.6618 60.4138C27.4917 60.7801 27.2039 61.1333 27.5833 61.5454C27.9628 61.951 28.3291 61.6893 28.7216 61.5781C32.4506 60.4988 35.6758 58.4907 38.8225 56.293C45.0963 51.917 50.3888 46.5927 54.5561 40.1694C56.3813 37.3568 57.2645 34.191 57.6701 30.927C58.1346 27.2117 55.9757 25.5438 52.4692 26.0147C46.4309 26.8258 41.858 30.3514 37.1608 33.6612C29.8599 38.822 23.1674 44.7154 17.0703 51.2564C12.9619 55.6716 8.97777 60.211 6.43292 65.784C4.59461 69.8132 4.18246 73.9667 5.53666 78.2118C6.77311 82.0972 9.73664 84.295 13.7862 84.6678C18.6534 85.1126 23.2001 84.0006 27.5702 82.0318C35.3422 78.5324 42.1721 73.6397 48.7141 68.2041C57.6963 60.7343 64.7421 51.7535 70.5907 41.7393C73.7439 36.3429 76.3738 30.6916 77.3616 24.4842C78.4672 17.5376 76.6813 12.9589 69.7663 10.0024C65.5075 8.184 61.1766 6.5553 56.8654 4.90043C54.4122 3.95852 51.8019 3.44179 49.2701 2.69612C48.6487 2.53913 48.1645 3.12128 47.386 2.89889Z" fill="#4EA0F7"/>
</svg>
