<svg width="58" height="63" viewBox="0 0 58 63" fill="none" xmlns="http://www.w3.org/2000/svg">
<path d="M27.8668 20.0029C32.1915 15.9518 36.2873 12.08 40.4175 8.25432C42.1394 6.65934 43.9127 5.12214 45.8977 3.86233C46.2409 3.64273 46.7272 3.16309 47.0876 3.79877C47.4022 4.35355 46.8759 4.7234 46.5098 4.91989C45.2399 5.59602 44.3131 6.65934 43.3292 7.64175C38.7815 12.1782 34.2795 16.7609 29.7203 21.2858C29.0281 21.9735 28.8679 22.5051 29.2741 23.4413C30.83 27.0416 32.2887 30.6823 33.7818 34.3115C34.4968 34.2017 34.7657 33.6411 35.1433 33.254C41.7103 26.5273 48.1687 19.6908 55.0847 13.3282C55.6968 12.7619 56.3433 12.2302 57.0011 11.7217C57.2185 11.5541 57.4931 11.2709 57.8191 11.6003C58.3054 12.0973 57.6761 12.2129 57.5045 12.4094C50.6857 20.3323 43.5637 27.972 36.3045 35.4846C35.1432 36.6866 35.0918 37.5997 35.721 39.0098C38.1808 44.5517 40.4175 50.1862 42.4426 55.9073C42.5627 56.2483 42.74 56.595 42.7572 56.9475C42.7801 57.4099 43.1919 58.0918 42.4483 58.2767C41.8019 58.4385 41.7332 57.797 41.4872 57.3232C38.4497 51.4344 35.7325 45.3955 33.2498 39.7957C30.6298 42.2055 27.9412 44.6615 25.2755 47.1407C24.6233 47.7417 25.2182 48.3312 25.4356 48.8571C27.066 52.7636 28.7421 56.6528 30.401 60.5478C30.5211 60.8368 30.6184 61.1315 30.7442 61.4204C30.973 61.9636 31.2533 62.6051 30.5669 62.9287C29.9319 63.2234 29.6916 62.5358 29.4399 62.1139C27.209 58.3923 25.2926 54.4973 23.4621 50.5618C23.3534 50.3249 23.2218 50.0995 23.0674 49.8048C22.3867 49.955 22.1006 50.5561 21.7173 50.9895C19.0116 54.035 16.3401 57.1151 13.6286 60.1606C13.0451 60.8194 12.3587 61.3973 11.6665 61.9463C11.2375 62.2873 10.5911 62.3739 10.2135 61.9925C9.74443 61.5244 10.1792 61.0737 10.5281 60.6461C13.0566 57.5197 15.5679 54.3701 18.0849 51.2322C18.5425 50.6601 18.9486 50.007 19.515 49.5736C21.7402 47.8631 21.7345 46.0369 20.3502 43.6965C19.0001 41.4138 17.9819 38.9173 16.9579 36.4555C16.4145 35.1494 16.0484 35.3459 15.2246 36.2012C11.3748 40.1886 7.10159 43.708 2.85701 47.2505C2.14195 47.8457 1.13516 48.9668 0.322855 48.0364C-0.638182 46.9327 0.786187 46.2392 1.47836 45.5631C5.61997 41.512 10.122 37.8482 14.1835 33.7047C14.8928 32.9766 15.1446 32.4333 14.664 31.422C11.6894 25.1172 9.53851 18.4772 7.1588 11.9355C6.8499 11.086 6.47806 10.092 7.54206 9.58925C8.66327 9.05759 9.24105 9.91286 9.66437 10.8317C12.0784 16.0674 13.7087 21.6152 15.974 26.9087C16.2829 27.6311 16.6204 28.3476 16.8549 29.0931C17.1696 30.0929 17.5014 30.3818 18.3652 29.4919C20.4703 27.319 22.6269 25.1866 24.8236 23.1004C25.4757 22.4763 25.4757 21.9735 25.1439 21.1933C23.0674 16.3333 21.0709 11.4327 18.6798 6.71712C18.0162 5.41109 17.3984 4.07616 17.0495 2.64299C16.8721 1.91484 16.8378 1.18669 17.284 0.522114C17.5814 0.0829158 18.0048 -0.0557756 18.5082 0.0193504C19.0459 0.100255 19.1546 0.475883 19.1088 0.938197C19.063 1.3774 19.2061 1.77037 19.412 2.13444C22.6383 7.83824 25.5729 13.6749 27.8668 20.0029ZM26.7113 24.8283C24.0856 27.3594 21.5057 29.8502 18.9201 32.3351C18.5253 32.7165 18.5025 33.0806 18.7313 33.5949C20.2815 37.0854 21.8032 40.5932 23.3134 44.101C23.6165 44.806 23.8854 44.8118 24.3945 44.2859C26.6827 41.9223 28.9995 39.5819 31.3163 37.2414C31.6709 36.8831 31.8711 36.5711 31.6252 36.0163C29.9491 32.2484 28.3073 28.4632 26.7113 24.8283Z" fill="#1FA3FF"/>
</svg>
