<svg width="30" height="26" viewBox="0 0 30 26" fill="none" xmlns="http://www.w3.org/2000/svg">
<path d="M14.3908 23.7388C12.5752 23.6934 10.7899 23.4791 9.06008 22.8941C8.47506 22.6974 7.87743 22.715 7.30502 22.9546C5.90299 23.5421 4.50853 24.1423 3.11154 24.7374C2.93251 24.813 2.75599 24.9013 2.57191 24.9618C2.22897 25.0728 1.90116 25.0375 1.6263 24.7828C1.35901 24.5357 1.4397 24.2532 1.533 23.9557C1.93394 22.6949 2.30714 21.424 2.72321 20.1682C2.91486 19.5882 2.81147 19.1116 2.43322 18.6476C1.56326 17.581 0.879901 16.4034 0.481482 15.0795C-0.622993 11.408 0.204102 8.13747 2.64 5.25777C4.76321 2.74622 7.53449 1.23829 10.7042 0.527187C16.0021 -0.65798 20.9748 0.095988 25.3977 3.39176C27.6445 5.06613 29.2004 7.25995 29.7778 10.0539C30.4057 13.1101 29.6921 15.8638 27.7731 18.2896C25.7583 20.8364 23.045 22.299 19.9535 23.1235C18.1304 23.6077 16.2694 23.7792 14.3908 23.7388ZM3.04094 23.3833C4.14289 22.9067 5.17929 22.4629 6.21568 22.0115C7.12599 21.6181 8.05646 21.3534 9.05503 21.5853C9.50892 21.6912 9.95021 21.8577 10.4041 21.9636C13.1678 22.6116 15.9517 22.6469 18.7255 22.1023C21.5371 21.55 24.0562 20.3775 26.0987 18.3072C29.2584 15.1047 29.6215 10.4473 26.999 6.80353C25.607 4.86944 23.7536 3.51532 21.585 2.5924C18.264 1.18029 14.8195 0.905432 11.3069 1.66949C8.27333 2.33015 5.59787 3.69184 3.56544 6.10504C1.48509 8.57624 0.748773 11.3879 1.649 14.5475C1.99194 15.7503 2.59713 16.8245 3.38388 17.7928C4.06976 18.6376 4.2715 19.5479 3.90838 20.5943C3.5957 21.492 3.34101 22.4049 3.04094 23.3833Z" fill="#6D6D6D"/>
</svg>
