<svg width="50" height="50" viewBox="0 0 50 50" fill="none" xmlns="http://www.w3.org/2000/svg">
<circle cx="25" cy="25" r="25" fill="#DDEDFE"/>
<path d="M37.085 36.0006C36.6222 35.8831 36.4262 35.5741 36.3552 35.1339C36.0202 33.0725 35.1541 31.2271 33.8138 29.5922C32.4792 27.9655 30.8208 26.7407 28.8331 25.9424C27.9074 25.5706 26.9448 25.3163 25.9481 25.1988C22.7251 24.8215 19.8514 25.6608 17.3128 27.5664C15.0411 29.2696 13.5617 31.4841 12.8461 34.1661C12.7552 34.5051 12.6899 34.8524 12.636 35.1968C12.5707 35.6233 12.3435 35.8967 11.9062 36.0006C11.8693 36.0006 11.8324 36.0006 11.7926 36.0006C11.7387 35.9869 11.6847 35.976 11.6336 35.9596C11.2076 35.8475 10.9492 35.4566 11.0117 35.0246C11.378 32.5695 12.3634 30.3769 14.0359 28.4822C15.7141 26.5794 17.7785 25.2124 20.2405 24.4087C20.2887 24.3922 20.337 24.3758 20.3824 24.3594C17.4406 22.596 15.9015 20.0781 16.0492 16.7126C16.1486 14.4817 17.1197 12.6007 18.8405 11.1052C22.3758 8.03227 27.8336 8.35488 30.9401 11.8735C32.6666 13.831 33.3027 16.1111 32.837 18.64C32.3713 21.1716 30.8975 23.0389 28.6201 24.3485C28.9524 24.4688 29.2846 24.5809 29.6083 24.7094C31.6898 25.5323 33.4532 26.779 34.9184 28.4194C36.4404 30.1253 37.4116 32.0911 37.8688 34.2919C37.9199 34.5434 37.9568 34.7977 37.9937 35.0519C38.059 35.5167 37.7523 35.9049 37.2639 35.976C37.2412 35.9787 37.2213 35.9897 37.1986 35.9979C37.1617 36.0006 37.1248 36.0006 37.085 36.0006ZM24.7554 23.7416C25.028 23.706 25.5505 23.6705 26.0531 23.5611C27.7597 23.1893 29.1568 22.3281 30.2075 20.9803C31.3774 19.4793 31.8147 17.7925 31.4228 15.9443C31.0225 14.0661 29.9519 12.587 28.3021 11.5263C26.4081 10.3069 24.3579 10.0171 22.2083 10.7881C20.2177 11.5017 18.8178 12.844 17.983 14.7195C17.469 15.8732 17.3242 17.0789 17.5712 18.3174C17.8552 19.7336 18.5679 20.9283 19.6725 21.8989C21.0384 23.1046 22.657 23.7088 24.7554 23.7416Z" fill="black"/>
</svg>
