<svg width="50" height="50" viewBox="0 0 50 50" fill="none" xmlns="http://www.w3.org/2000/svg">
<circle cx="25" cy="25" r="25" fill="#FFC900"/>
<g clip-path="url(#clip0_3962_3)">
<path d="M24.8634 40C24.7303 40 24.5971 40 24.467 40C24.4489 39.9909 24.4307 39.9788 24.4095 39.9788C23.9707 39.9304 23.5925 39.7519 23.2566 39.4674C23.0357 39.2798 22.8209 39.0831 22.5879 38.9106C22.261 38.6746 21.9887 38.6746 21.6619 38.9106C21.4561 39.0589 21.2685 39.2314 21.0779 39.4008C20.7995 39.646 20.4908 39.8396 20.1277 39.9274C20.0157 39.9546 19.9007 39.9758 19.7858 40C19.6526 40 19.5195 40 19.3893 40C18.8719 39.9062 18.4452 39.6429 18.0639 39.2949C17.9278 39.1709 17.7916 39.0468 17.6433 38.9409C17.2772 38.6746 17.02 38.6716 16.6629 38.9137C16.5842 38.9681 16.5025 39.0256 16.4329 39.0892C15.982 39.5037 15.4949 39.8487 14.8897 39.997C14.7777 39.997 14.6657 39.997 14.5538 39.997C14.1029 39.8245 14.0696 39.7882 14.0635 39.298C14.0424 38.142 14.0333 36.98 14.0182 35.8211C14.0182 35.7363 14.0061 35.6486 14 35.5639C14 27.1757 14 18.7876 14 10.4025C14.0575 10.3389 14.118 10.2784 14.1725 10.2118C14.2996 10.0575 14.463 9.99698 14.6597 10.0121C15.0954 10.0424 15.4979 10.1604 15.8428 10.4448C16.097 10.6566 16.3482 10.8715 16.6175 11.0652C16.9897 11.3345 17.253 11.3254 17.6222 11.05C17.8249 10.8957 18.0155 10.7262 18.2062 10.5568C18.996 9.8608 20.1489 9.84567 20.9508 10.5114C21.1626 10.6869 21.3653 10.8745 21.5832 11.044C21.9645 11.3405 22.2489 11.3436 22.6363 11.0531C22.842 10.8957 23.0357 10.7202 23.2324 10.5538C24.1705 9.75489 25.2508 9.89106 26.0466 10.5901C26.2372 10.7595 26.4249 10.932 26.6306 11.0833C26.9695 11.3315 27.2419 11.3345 27.5838 11.0894C27.7896 10.9411 27.9833 10.7716 28.1678 10.5992C28.9001 9.9062 30.0258 9.767 30.9064 10.4902C31.1515 10.6899 31.3815 10.9078 31.6357 11.0954C31.9655 11.3375 32.2409 11.3345 32.5768 11.0924C32.7553 10.9653 32.9157 10.814 33.0851 10.6748C33.4634 10.3662 33.8658 10.1089 34.3591 10.0212C34.8675 9.93343 35.1731 10.1664 35.1791 10.6718C35.1973 12.0335 35.2245 13.3952 35.2245 14.7569C35.2336 20.815 35.2366 26.8761 35.2336 32.9342C35.2306 35.113 35.2003 37.2887 35.1791 39.4674C35.1761 39.7307 35.0702 39.8638 34.816 39.9486C34.7555 39.9697 34.6919 39.9849 34.6284 40.003C34.5679 40.003 34.5074 40.003 34.4438 40.003C34.4317 39.997 34.4166 39.9849 34.4045 39.9849C33.9354 39.9395 33.5481 39.7125 33.1941 39.416C32.9822 39.2405 32.7795 39.0559 32.5586 38.8894C32.2863 38.6867 31.9988 38.6867 31.7234 38.8834C31.5509 39.0075 31.3906 39.1497 31.2241 39.2859C30.8882 39.5612 30.5493 39.8457 30.1166 39.9334C29.4509 40.0696 28.8305 39.9395 28.298 39.4977C28.0952 39.3282 27.8985 39.1497 27.6897 38.9863C27.2782 38.6595 26.9907 38.6534 26.5762 38.9712C26.3674 39.1315 26.1737 39.3161 25.9709 39.4856C25.6441 39.7549 25.2719 39.9183 24.8634 40ZM33.9899 38.493C33.9899 29.4906 33.9899 20.5154 33.9899 11.5191C33.8961 11.6038 33.8205 11.6673 33.7478 11.7369C33.2516 12.2151 32.6917 12.4753 31.9746 12.436C31.5237 12.4117 31.1545 12.2786 30.8186 11.9972C30.5887 11.8035 30.3617 11.6038 30.1227 11.4253C29.7505 11.1438 29.4721 11.1438 29.0908 11.4192C28.9092 11.5524 28.7398 11.7006 28.5764 11.8489C28.2072 12.1848 27.8017 12.4057 27.2873 12.439C26.6972 12.4753 26.1797 12.3542 25.7379 11.9427C25.514 11.7339 25.278 11.5402 25.0299 11.3617C24.7484 11.159 24.4458 11.165 24.1644 11.3738C23.9677 11.5191 23.7771 11.6734 23.5985 11.8398C23.1567 12.2393 22.6696 12.5025 22.0522 12.4208C22.0129 12.4148 21.9705 12.4178 21.9312 12.4208C21.556 12.4511 21.2292 12.327 20.9417 12.097C20.6482 11.861 20.3637 11.6129 20.0672 11.3768C19.8009 11.162 19.4015 11.165 19.1352 11.3799C19.0202 11.4737 18.9052 11.5675 18.8023 11.6734C18.2788 12.1969 17.6857 12.5055 16.905 12.4329C16.4844 12.3936 16.1364 12.2604 15.8186 12.0093C15.628 11.858 15.4464 11.6946 15.2467 11.5251C15.2467 20.5154 15.2467 29.4876 15.2467 38.49C15.3647 38.3841 15.4585 38.2903 15.5584 38.2086C15.8882 37.9363 16.209 37.6336 16.6629 37.5973C16.9413 37.5762 17.2227 37.5883 17.5011 37.5973C17.8521 37.6125 18.1457 37.7607 18.4089 37.9877C18.6449 38.1904 18.8749 38.3992 19.1231 38.5868C19.4892 38.8622 19.7555 38.8622 20.1247 38.5929C20.3244 38.4446 20.509 38.2752 20.6996 38.1148C20.9599 37.8969 21.2261 37.6881 21.5651 37.6155C22.3064 37.4581 22.9782 37.5701 23.5501 38.1118C23.7498 38.2994 23.9647 38.4749 24.1856 38.6353C24.4821 38.8531 24.7908 38.8471 25.0873 38.6232C25.2084 38.5324 25.3325 38.4386 25.4414 38.3327C25.9588 37.8334 26.5217 37.4945 27.2903 37.5701C27.6685 37.6064 28.0105 37.679 28.307 37.9181C28.5915 38.1481 28.8669 38.3932 29.1543 38.6171C29.4569 38.8531 29.811 38.8471 30.1105 38.6111C30.2891 38.4688 30.4585 38.3145 30.628 38.1572C31.0516 37.7668 31.5267 37.5096 32.1289 37.5792C32.1682 37.5852 32.2106 37.5822 32.2499 37.5792C32.6494 37.5519 33.0034 37.676 33.3151 37.9211C33.4513 38.027 33.5844 38.139 33.7176 38.251C33.8084 38.3236 33.887 38.3992 33.9899 38.493Z" fill="black"/>
<path d="M14 35.5639C14.0061 35.6486 14.0151 35.7363 14.0182 35.8211C14.0333 36.98 14.0424 38.142 14.0605 39.304C14.0666 39.7942 14.0999 39.8305 14.5507 40.003C14.3661 40.003 14.1846 40.003 14 40.003C14 38.5203 14 37.0406 14 35.5639Z" fill="white"/>
<path d="M20.2789 16.3002C20.2789 16.0551 20.2759 15.8251 20.2789 15.5951C20.282 15.35 20.409 15.1836 20.6269 15.0837C20.8478 14.9808 21.0506 15.0232 21.2442 15.1654C21.3865 15.2683 21.4228 15.4196 21.4349 15.58C21.45 15.7737 21.4621 15.9673 21.4682 16.161C21.4712 16.2487 21.5014 16.2911 21.5922 16.3214C21.9372 16.4394 22.2943 16.5392 22.618 16.7057C23.308 17.0597 23.78 17.6104 23.9253 18.3912C23.9525 18.5425 23.9374 18.7089 23.9041 18.8602C23.8466 19.1204 23.4895 19.2899 23.2111 19.2052C22.9539 19.1265 22.7845 18.9419 22.7603 18.6817C22.7361 18.4426 22.6332 18.2641 22.4698 18.1128C22.0855 17.7557 21.6588 17.5015 21.105 17.5348C20.8115 17.553 20.5089 17.5166 20.2214 17.5711C19.8311 17.6437 19.4891 17.8525 19.2198 18.1521C18.8537 18.5606 18.9263 19.1628 19.3741 19.4745C19.7585 19.7408 20.2063 19.8497 20.6511 19.9556C21.2624 20.1039 21.8827 20.2249 22.4637 20.4791C22.9328 20.6849 23.3443 20.9633 23.6408 21.393C24.0796 22.0284 24.0615 23.0845 23.5168 23.7684C23.0326 24.3766 22.3971 24.7337 21.6527 24.9062C21.5105 24.9395 21.4561 25 21.4561 25.1422C21.4561 25.3298 21.4318 25.5205 21.4439 25.7081C21.4651 26.0288 21.0445 26.3012 20.7359 26.2165C20.4665 26.1438 20.3031 25.9592 20.285 25.6748C20.2729 25.5235 20.2789 25.3692 20.2759 25.2148C20.2729 24.9455 20.2729 24.9486 20.0066 24.882C19.4498 24.7428 18.9414 24.5128 18.5117 24.1225C18.0609 23.7139 17.7946 23.2177 17.7673 22.6034C17.7583 22.4188 18.0094 22.092 18.191 22.0375C18.4028 21.977 18.7236 22.092 18.8385 22.2796C18.887 22.3613 18.9293 22.4521 18.9535 22.5429C19.0988 23.1269 19.4922 23.4658 20.0459 23.6292C20.8206 23.8592 21.568 23.8108 22.2458 23.3296C22.4698 23.1693 22.6665 22.9695 22.724 22.679C22.8057 22.2524 22.612 21.9528 22.267 21.7289C21.8736 21.4777 21.4288 21.3688 20.984 21.2659C20.403 21.1327 19.819 21.0208 19.2743 20.7757C18.8053 20.5669 18.3877 20.2855 18.1002 19.8527C17.9761 19.6621 17.8823 19.4351 17.8369 19.2142C17.6342 18.2308 18.0245 17.4864 18.8083 16.9175C19.2047 16.63 19.6404 16.4333 20.1246 16.3395C20.167 16.3304 20.2154 16.3153 20.2789 16.3002Z" fill="black"/>
<path d="M24.573 28.7704C26.3372 28.7704 28.1014 28.7674 29.8656 28.7735C30.2468 28.7735 30.6311 28.7825 31.0094 28.8279C31.43 28.8794 31.6116 29.3514 31.3574 29.6903C31.2878 29.7841 31.2061 29.8719 31.1153 29.9445C31.0699 29.9808 30.9943 29.9899 30.9337 29.9899C29.8595 29.9929 28.7822 29.9929 27.708 29.9929C25.3417 29.9899 22.9783 29.9929 20.612 29.9839C19.8282 29.9808 19.0415 29.9597 18.2577 29.9385C17.9188 29.9294 17.6767 29.5542 17.7857 29.2274C17.8795 28.9459 18.0671 28.8067 18.3636 28.8067C20.4334 28.8067 22.5032 28.8067 24.573 28.8067C24.573 28.7886 24.573 28.7795 24.573 28.7704Z" fill="black"/>
<path d="M24.6184 34.9768C22.5274 34.9768 20.4365 34.9768 18.3455 34.9768C17.9491 34.9768 17.6676 34.5743 17.7978 34.1991C17.8885 33.9389 18.0792 33.8027 18.3515 33.8027C22.5365 33.8027 26.7245 33.8027 30.9095 33.8027C31.2787 33.8027 31.5783 34.2294 31.433 34.5713C31.3725 34.7105 31.2575 34.8285 31.1516 34.9435C31.1213 34.9768 31.0396 34.9768 30.9822 34.9768C28.8609 34.9768 26.7397 34.9768 24.6184 34.9768Z" fill="black"/>
<path d="M28.3796 23.7745C29.2268 23.7745 30.0711 23.7745 30.9184 23.7745C31.2936 23.7745 31.5992 24.2949 31.4116 24.6248C31.3481 24.7367 31.2543 24.8366 31.1635 24.9334C31.1393 24.9607 31.0818 24.9697 31.0394 24.9697C29.3267 24.9697 27.614 24.9728 25.9012 24.9667C25.5018 24.9667 25.2476 24.7004 25.2688 24.304C25.2749 24.2042 25.3566 24.1073 25.4171 24.0165C25.5442 23.8229 25.7227 23.7624 25.9618 23.7684C26.7697 23.7866 27.5746 23.7745 28.3796 23.7745Z" fill="black"/>
<path d="M28.3647 19.9556C27.5175 19.9556 26.6732 19.9496 25.8259 19.9617C25.6383 19.9647 25.5233 19.8921 25.4144 19.7589C25.1693 19.4533 25.251 18.9964 25.5959 18.8057C25.6292 18.7876 25.6746 18.7876 25.7139 18.7876C27.4811 18.7876 29.2514 18.7876 31.0186 18.7845C31.1578 18.7845 31.2183 18.8723 31.2909 18.951C31.6086 19.305 31.4725 19.6651 31.1547 19.9284C31.1184 19.9586 31.0488 19.9526 30.9944 19.9526C30.1168 19.9556 29.2423 19.9556 28.3647 19.9556Z" fill="black"/>
</g>
<defs>
<clipPath id="clip0_3962_3">
<rect width="21.2306" height="30" fill="white" transform="translate(14 10)"/>
</clipPath>
</defs>
</svg>
