<svg width="25" height="25" viewBox="0 0 25 25" fill="none" xmlns="http://www.w3.org/2000/svg">
<g clip-path="url(#clip0_2006_708)">
<path d="M14.5144 16.0854C9.6466 19.4076 4.40687 17.76 1.87084 14.457C-0.894518 10.8553 -0.564987 5.75622 2.65516 2.58232C5.85604 -0.576167 10.9377 -0.863302 14.4681 1.86159C17.8502 4.47085 19.3687 9.7472 16.1139 14.4743C17.1892 15.3299 17.7789 16.7868 19.4227 16.9815C19.7291 17.0181 20.0374 17.3206 20.2841 17.5615C21.6138 18.8661 22.9338 20.1843 24.2423 21.512C25.1846 22.4678 25.2444 23.5913 24.4292 24.4065C23.6102 25.2216 22.4886 25.1638 21.5367 24.2253C20.2089 22.9169 18.8908 21.5987 17.5823 20.2729C17.3607 20.0474 17.0524 19.7776 17.0292 19.5079C16.8905 17.8371 15.3835 17.2378 14.5144 16.0854ZM17.2277 9.00913C17.2509 4.48049 13.5913 0.740028 9.0916 0.697632C4.50901 0.653309 0.741571 4.31861 0.704957 8.86074C0.668342 13.4491 4.32016 17.1703 8.89504 17.2069C13.4796 17.2455 17.2046 13.5802 17.2277 9.00913ZM24.3753 23.1963C24.2442 22.8417 24.2249 22.5796 24.0823 22.4351C22.531 20.8549 20.9952 19.2554 19.3629 17.7638C19.122 17.5442 18.2221 17.681 17.9504 17.9643C17.6767 18.2495 17.5727 19.1379 17.8039 19.3884C19.2762 20.9975 20.8391 22.5257 22.4289 24.0191C22.6544 24.2311 23.2614 24.2465 23.5717 24.102C23.9185 23.9421 24.1305 23.4892 24.3753 23.1963ZM15.5955 14.9118C15.3411 15.1488 15.1503 15.3242 15.0848 15.3858C15.8768 16.2395 16.5012 16.9121 17.1217 17.5827C17.642 17.3264 17.7191 17.0566 17.2778 16.6461C16.7633 16.1682 16.295 15.6383 15.5955 14.9118Z" fill="#49505B"/>
<path d="M16.3547 9.01481C16.3316 13.1426 13.0286 16.3859 8.88921 16.3454C4.81923 16.3069 1.54898 13.0096 1.55861 8.95122C1.56632 4.82535 4.95412 1.49921 9.09734 1.54739C13.1365 1.59557 16.3798 4.93326 16.3547 9.01481ZM15.6552 8.98976C15.6533 5.2493 12.647 2.23921 8.92775 2.25463C5.27595 2.27005 2.262 5.30712 2.26007 8.97241C2.26007 12.6339 5.27016 15.6305 8.95859 15.6401C12.6586 15.6497 15.6571 12.6705 15.6552 8.98976Z" fill="#49505B"/>
</g>
<defs>
<clipPath id="clip0_2006_708">
<rect width="25" height="24.9769" fill="white"/>
</clipPath>
</defs>
</svg>
