<svg width="30" height="26" viewBox="0 0 30 26" fill="none" xmlns="http://www.w3.org/2000/svg">
<path d="M0 24.0017C0.671227 24.0017 1.34245 24.0017 2.04422 24.0017C2.04422 23.8489 2.04422 23.7244 2.04422 23.5999C2.04422 17.2166 2.04422 10.834 2.04422 4.45073C2.04422 3.6393 2.23142 3.39807 3.00995 3.18816C6.86186 2.1496 10.7185 1.12749 14.5618 0.056813C15.3959 -0.175806 16.0546 0.327028 16.0147 1.17918C15.9653 2.23262 16.0029 3.28998 16.0029 4.36614C15.3622 4.36614 14.7411 4.36614 14.0895 4.36614C14.0895 3.66515 14.0895 2.95633 14.0895 2.20364C13.6603 2.31565 13.2695 2.4159 12.8802 2.52085C9.99791 3.29781 7.1172 4.07791 4.23335 4.84783C4.02423 4.90343 3.96313 4.99116 3.96313 5.20498C3.9694 11.3729 3.96783 17.54 3.96783 23.708C3.96783 23.7949 3.96783 23.8811 3.96783 23.9876C7.3365 23.9876 10.6832 23.9876 14.0738 23.9876C14.0738 23.8693 14.0738 23.7463 14.0738 23.6242C14.0738 18.2496 14.0738 12.8751 14.0738 7.49984C14.0738 6.6704 14.4216 6.32186 15.2479 6.32108C19.1366 6.31873 23.0253 6.31559 26.9141 6.31403C27.5861 6.31403 27.9714 6.69311 27.9722 7.3659C27.9738 11.1058 27.973 14.8457 27.9722 18.5849C27.9722 18.671 27.9636 18.7572 27.9589 18.859C27.3245 18.859 26.7057 18.859 26.0549 18.859C26.0549 15.3212 26.0549 11.8021 26.0549 8.26192C22.6964 8.26192 19.37 8.26192 16.0233 8.26192C16.0233 13.5025 16.0233 18.7345 16.0233 24.0001C20.6749 24.0001 25.3288 24.0001 30 24.0001C30 24.6557 30 25.2776 30 25.9417C20.0013 25.9417 10.0003 25.9417 0 25.9417C0 25.294 0 24.6478 0 24.0017Z" fill="#C4C4C4"/>
<path d="M6.75391 10.752C8.27259 10.752 9.77795 10.752 11.299 10.752C11.299 11.3887 11.299 12.009 11.299 12.6489C9.78735 12.6489 8.2812 12.6489 6.75391 12.6489C6.75391 12.0216 6.75391 11.3942 6.75391 10.752Z" fill="#C4C4C4"/>
<path d="M23.265 12.6528C21.7471 12.6528 20.2417 12.6528 18.7207 12.6528C18.7207 12.0176 18.7207 11.3973 18.7207 10.7559C20.2323 10.7559 21.7377 10.7559 23.265 10.7559C23.265 11.3793 23.265 11.9996 23.265 12.6528Z" fill="#C4C4C4"/>
<path d="M6.74414 17.0367C6.74414 16.4038 6.74414 15.789 6.74414 15.1514C8.25655 15.1514 9.76583 15.1514 11.2947 15.1514C11.2947 15.7686 11.2947 16.3897 11.2947 17.0367C9.79325 17.0367 8.28553 17.0367 6.74414 17.0367Z" fill="#C4C4C4"/>
<path d="M23.2744 15.1523C23.2744 15.7821 23.2744 16.3969 23.2744 17.036C21.7604 17.036 20.2535 17.036 18.7246 17.036C18.7246 16.4173 18.7246 15.7962 18.7246 15.1523C20.2253 15.1523 21.7338 15.1523 23.2744 15.1523Z" fill="#C4C4C4"/>
<path d="M6.74707 8.25512C6.74707 7.62854 6.74707 7.01684 6.74707 6.38086C8.2587 6.38086 9.76406 6.38086 11.2921 6.38086C11.2921 6.99334 11.2921 7.61209 11.2921 8.25512C9.79069 8.25512 8.28533 8.25512 6.74707 8.25512Z" fill="#C4C4C4"/>
<path d="M6.75781 19.5298C8.28119 19.5298 9.78029 19.5298 11.2974 19.5298C11.2974 20.1626 11.2974 20.7822 11.2974 21.4205C9.78185 21.4205 8.27728 21.4205 6.75781 21.4205C6.75781 20.7853 6.75781 20.1587 6.75781 19.5298Z" fill="#C4C4C4"/>
<path d="M23.2697 21.4227C21.7479 21.4227 20.2425 21.4227 18.7207 21.4227C18.7207 20.7883 18.7207 20.168 18.7207 19.5328C20.2417 19.5328 21.7471 19.5328 23.2697 19.5328C23.2697 20.168 23.2697 20.7875 23.2697 21.4227Z" fill="#C4C4C4"/>
<path d="M26.0703 22.3841C26.0703 21.7888 26.0703 21.2084 26.0703 20.6147C26.7024 20.6147 27.3133 20.6147 27.9493 20.6147C27.9493 21.199 27.9493 21.7794 27.9493 22.3841C27.3391 22.3841 26.7204 22.3841 26.0703 22.3841Z" fill="#C4C4C4"/>
</svg>
