<svg width="38" height="34" viewBox="0 0 38 34" fill="none" xmlns="http://www.w3.org/2000/svg">
<g filter="url(#filter0_d_684_5095)">
<path d="M4 24.0017C4.67123 24.0017 5.34245 24.0017 6.04422 24.0017C6.04422 23.8489 6.04422 23.7244 6.04422 23.5999C6.04422 17.2166 6.04422 10.834 6.04422 4.45073C6.04422 3.6393 6.23142 3.39807 7.00995 3.18816C10.8619 2.1496 14.7185 1.12749 18.5618 0.056813C19.3959 -0.175806 20.0546 0.327028 20.0147 1.17918C19.9653 2.23262 20.0029 3.28998 20.0029 4.36614C19.3622 4.36614 18.7411 4.36614 18.0895 4.36614C18.0895 3.66515 18.0895 2.95633 18.0895 2.20364C17.6603 2.31565 17.2695 2.4159 16.8802 2.52085C13.9979 3.29781 11.1172 4.07791 8.23335 4.84783C8.02423 4.90343 7.96313 4.99116 7.96313 5.20498C7.9694 11.3729 7.96783 17.54 7.96783 23.708C7.96783 23.7949 7.96783 23.8811 7.96783 23.9876C11.3365 23.9876 14.6832 23.9876 18.0738 23.9876C18.0738 23.8693 18.0738 23.7463 18.0738 23.6242C18.0738 18.2496 18.0738 12.8751 18.0738 7.49984C18.0738 6.6704 18.4216 6.32186 19.2479 6.32108C23.1366 6.31873 27.0253 6.31559 30.9141 6.31403C31.5861 6.31403 31.9714 6.69311 31.9722 7.3659C31.9738 11.1058 31.973 14.8457 31.9722 18.5849C31.9722 18.671 31.9636 18.7572 31.9589 18.859C31.3245 18.859 30.7057 18.859 30.0549 18.859C30.0549 15.3212 30.0549 11.8021 30.0549 8.26192C26.6964 8.26192 23.37 8.26192 20.0233 8.26192C20.0233 13.5025 20.0233 18.7345 20.0233 24.0001C24.6749 24.0001 29.3288 24.0001 34 24.0001C34 24.6557 34 25.2776 34 25.9417C24.0013 25.9417 14.0003 25.9417 4 25.9417C4 25.294 4 24.6478 4 24.0017Z" fill="#FFC900"/>
<path d="M10.7539 10.752C12.2726 10.752 13.778 10.752 15.299 10.752C15.299 11.3887 15.299 12.009 15.299 12.6489C13.7874 12.6489 12.2812 12.6489 10.7539 12.6489C10.7539 12.0216 10.7539 11.3942 10.7539 10.752Z" fill="#FFC900"/>
<path d="M27.265 12.6528C25.7471 12.6528 24.2417 12.6528 22.7207 12.6528C22.7207 12.0176 22.7207 11.3973 22.7207 10.7559C24.2323 10.7559 25.7377 10.7559 27.265 10.7559C27.265 11.3793 27.265 11.9996 27.265 12.6528Z" fill="#FFC900"/>
<path d="M10.7441 17.0366C10.7441 16.4038 10.7441 15.7889 10.7441 15.1514C12.2566 15.1514 13.7658 15.1514 15.2947 15.1514C15.2947 15.7686 15.2947 16.3897 15.2947 17.0366C13.7932 17.0366 12.2855 17.0366 10.7441 17.0366Z" fill="#FFC900"/>
<path d="M27.2744 15.1523C27.2744 15.7821 27.2744 16.3969 27.2744 17.036C25.7604 17.036 24.2535 17.036 22.7246 17.036C22.7246 16.4173 22.7246 15.7962 22.7246 15.1523C24.2253 15.1523 25.7338 15.1523 27.2744 15.1523Z" fill="#FFC900"/>
<path d="M10.7471 8.25512C10.7471 7.62854 10.7471 7.01684 10.7471 6.38086C12.2587 6.38086 13.7641 6.38086 15.2921 6.38086C15.2921 6.99334 15.2921 7.61209 15.2921 8.25512C13.7907 8.25512 12.2853 8.25512 10.7471 8.25512Z" fill="#FFC900"/>
<path d="M10.7578 19.5298C12.2812 19.5298 13.7803 19.5298 15.2974 19.5298C15.2974 20.1626 15.2974 20.7822 15.2974 21.4205C13.7819 21.4205 12.2773 21.4205 10.7578 21.4205C10.7578 20.7853 10.7578 20.1587 10.7578 19.5298Z" fill="#FFC900"/>
<path d="M27.2697 21.4226C25.7479 21.4226 24.2425 21.4226 22.7207 21.4226C22.7207 20.7882 22.7207 20.1679 22.7207 19.5327C24.2417 19.5327 25.7471 19.5327 27.2697 19.5327C27.2697 20.1679 27.2697 20.7874 27.2697 21.4226Z" fill="#FFC900"/>
<path d="M30.0703 22.3841C30.0703 21.7888 30.0703 21.2084 30.0703 20.6147C30.7024 20.6147 31.3133 20.6147 31.9493 20.6147C31.9493 21.199 31.9493 21.7794 31.9493 22.3841C31.3391 22.3841 30.7204 22.3841 30.0703 22.3841Z" fill="#FFC900"/>
</g>
<defs>
<filter id="filter0_d_684_5095" x="0" y="0" width="38" height="33.9419" filterUnits="userSpaceOnUse" color-interpolation-filters="sRGB">
<feFlood flood-opacity="0" result="BackgroundImageFix"/>
<feColorMatrix in="SourceAlpha" type="matrix" values="0 0 0 0 0 0 0 0 0 0 0 0 0 0 0 0 0 0 127 0" result="hardAlpha"/>
<feOffset dy="4"/>
<feGaussianBlur stdDeviation="2"/>
<feComposite in2="hardAlpha" operator="out"/>
<feColorMatrix type="matrix" values="0 0 0 0 1 0 0 0 0 0.788235 0 0 0 0 0 0 0 0 0.15 0"/>
<feBlend mode="normal" in2="BackgroundImageFix" result="effect1_dropShadow_684_5095"/>
<feBlend mode="normal" in="SourceGraphic" in2="effect1_dropShadow_684_5095" result="shape"/>
</filter>
</defs>
</svg>
