<svg width="32" height="28" viewBox="0 0 32 28" fill="none" xmlns="http://www.w3.org/2000/svg">
<path d="M29.2223 7.06099C29.9301 7.11544 30.4629 7.42039 30.802 8.03302C31.0254 8.43871 31.0362 8.86074 30.9501 9.31544C30.5518 11.412 30.175 13.5112 29.7902 15.6105C29.4322 17.5545 29.0743 19.4986 28.7164 21.4427C28.4607 22.8394 28.2185 24.2389 27.9548 25.6357C27.7906 26.5043 27.0586 27.087 26.184 27.087C18.4038 27.087 10.6236 27.087 2.84346 27.087C1.92308 27.087 1.16955 26.4444 1.01346 25.5295C1.0027 25.4669 1.00539 25.4043 1.00539 25.3389C1.00539 17.8731 1.01077 10.41 1.00001 2.94416C0.997316 1.85505 1.73201 1.18253 2.43709 1.04911C2.60395 1.01644 2.77618 1.00827 2.94303 1.00827C5.026 1.00555 7.11166 1.01644 9.19462 1.0001C9.76784 0.994658 10.2065 1.20431 10.5402 1.65085C10.8228 2.02931 11.0784 2.42683 11.3341 2.82436C11.7243 3.42881 11.7189 3.42881 12.4348 3.42881C17.3973 3.42881 22.3625 3.42881 27.325 3.42881C28.2454 3.42881 28.9667 3.97881 29.1685 4.84738C29.2062 5.0053 29.2196 5.17139 29.2196 5.33475C29.2277 5.90381 29.2223 6.47287 29.2223 7.06099ZM14.5016 25.8726C18.35 25.8726 22.2011 25.8726 26.0494 25.8726C26.1302 25.8726 26.2136 25.8753 26.2943 25.8699C26.5258 25.8481 26.7545 25.6629 26.7922 25.4696C26.8272 25.279 26.8622 25.0857 26.8971 24.8951C27.212 23.1607 27.5296 21.429 27.8444 19.6946C28.162 17.9548 28.4796 16.2177 28.7998 14.4778C29.1308 12.6699 29.4618 10.8647 29.7928 9.05678C29.809 8.97237 29.8198 8.8798 29.809 8.79539C29.7579 8.46321 29.5183 8.28623 29.1308 8.28623C21.3883 8.28623 13.6458 8.28623 5.90332 8.28623C5.8791 8.28623 5.85219 8.28623 5.82797 8.28623C5.49695 8.2944 5.27897 8.48772 5.21976 8.81717C5.07175 9.65034 4.92643 10.4835 4.77303 11.3167C4.38012 13.4649 3.98183 15.6132 3.58622 17.7615C3.26059 19.5149 2.93765 21.2738 2.6174 23.03C2.48822 23.7325 2.35905 24.4323 2.23256 25.1347C2.17874 25.4288 2.27024 25.6738 2.50168 25.7827C2.62547 25.8427 2.77618 25.8672 2.91612 25.8672C6.77795 25.8726 10.6398 25.8726 14.5016 25.8726ZM2.20565 18.4966C2.21642 18.4966 2.22987 18.4939 2.24064 18.4939C2.24602 18.4776 2.25678 18.4612 2.25948 18.4422C2.51783 17.0263 2.77618 15.6105 3.03722 14.1946C3.37631 12.3568 3.72616 10.5216 4.05718 8.68376C4.24018 7.66272 4.91835 7.06643 5.93562 7.06643C13.2072 7.06643 20.4787 7.06643 27.7502 7.06643C27.8364 7.06643 27.9198 7.06643 28.0221 7.06643C28.0221 6.48376 28.0221 5.92832 28.0221 5.37287C28.0221 4.86644 27.7987 4.64045 27.3008 4.63772C26.332 4.63772 25.3605 4.63772 24.3917 4.63772C20.2365 4.63772 16.0813 4.635 11.9262 4.64317C11.4929 4.64317 11.1376 4.50159 10.8631 4.1803C10.629 3.90802 10.4245 3.61396 10.2173 3.3199C10.0235 3.04218 9.84589 2.74812 9.6602 2.46495C9.54178 2.28525 9.38839 2.20629 9.15695 2.20629C7.0982 2.21718 5.03946 2.21174 2.98071 2.21174C2.89459 2.21174 2.80578 2.21446 2.71967 2.22535C2.43978 2.26619 2.25678 2.45406 2.21911 2.73451C2.20834 2.82708 2.20565 2.9251 2.20565 3.01768C2.20565 8.1147 2.20565 13.209 2.20565 18.306C2.20565 18.3741 2.20565 18.4367 2.20565 18.4966Z" fill="#6D6D6D" stroke="#6D6D6D"/>
</svg>
