<svg width="98" height="101" viewBox="0 0 98 101" fill="none" xmlns="http://www.w3.org/2000/svg">
<path d="M15.9889 24.2175C13.6989 24.9475 11.4189 25.7575 9.08892 26.3975C6.23892 27.1775 3.38888 27.2375 1.29888 24.7575C-0.751118 22.3275 -0.0410814 19.6175 1.14892 17.0575C3.29892 12.4475 5.45893 7.84752 8.15893 3.52752C8.68893 2.68752 9.2489 1.83749 9.9389 1.12749C11.0589 -0.0325067 12.4689 -0.402492 13.8889 0.517508C15.2689 1.40751 15.2989 2.79751 14.6589 4.14751C13.1489 7.34751 11.5589 10.5075 10.0089 13.6875C9.4189 14.9075 8.81893 16.1375 8.28893 17.3975C7.72893 18.7075 8.23891 19.1075 9.51891 18.6775C11.4089 18.0375 13.2689 17.2775 15.1889 16.7375C20.5189 15.2275 24.1489 17.9875 23.7389 23.5075C23.4689 27.1075 22.5589 30.6575 21.9389 34.2275C21.8189 34.9275 21.4789 35.6275 21.9589 36.5175C24.5989 35.4075 27.2489 34.2775 29.9089 33.1775C30.9189 32.7575 31.9289 32.3475 32.9689 32.0375C38.5889 30.3775 42.2589 33.3675 41.4789 39.1575C40.9689 42.9275 40.099 46.6475 39.379 50.3875C39.229 51.1775 38.9089 51.9575 39.2989 52.8975C41.0289 52.5375 42.2789 51.2775 43.7689 50.5075C49.1389 47.7575 53.2589 50.2175 53.3089 56.2375C53.3489 60.5275 52.399 64.7175 52.009 68.9575C51.829 70.9275 52.3289 71.4475 54.2289 70.6675C55.6389 70.0875 57.1489 69.6275 58.6589 69.3775C64.6489 68.4075 68.0789 71.2075 67.9089 77.2375C67.7289 83.3975 67.1889 89.5475 66.2389 95.6475C66.0889 96.6375 65.979 97.6275 65.759 98.5975C65.629 99.2075 66.309 100.208 65.1189 100.338C64.2889 100.428 63.829 99.7575 63.499 99.0875C62.199 96.5075 61.9589 93.7075 61.7989 90.8975C61.5689 86.7275 61.3389 82.5575 61.1989 78.3775C61.1389 76.3975 60.2789 76.0575 58.5989 76.7275C56.6589 77.4975 54.7089 78.2575 52.7389 78.9275C47.7189 80.6475 44.5789 78.5075 44.7689 73.1775C44.9289 68.8375 45.6289 64.5175 46.0689 60.1775C46.1489 59.4075 46.659 58.3975 45.8689 57.9175C45.069 57.4375 44.419 58.3875 43.749 58.7875C42.419 59.5675 41.1789 60.5375 39.7889 61.1775C35.5989 63.0975 32.0589 61.0075 31.6489 56.4075C31.3489 53.0975 32.3289 49.9275 32.8889 46.7175C33.2289 44.7475 33.6789 42.8075 34.1089 40.8575C34.4489 39.3275 33.8589 39.0375 32.5489 39.6175C30.4789 40.5475 28.4089 41.4775 26.3389 42.4075C25.4289 42.8175 24.5289 43.2675 23.6089 43.6375C17.1289 46.2375 13.3489 43.3075 14.3589 36.4275C14.8389 33.1975 15.4489 29.9875 16.0089 26.7675C16.1489 25.9675 16.5089 25.1875 15.9889 24.2175Z" fill="#F3CC4B"/>
<path d="M90.1697 48.8544C90.3197 46.3144 90.4197 43.7744 90.6397 41.2444C90.8297 39.0944 90.3597 38.2644 88.1997 39.6344C86.8197 40.5044 85.3497 41.2344 83.8597 41.9144C77.9197 44.6644 74.0897 42.0744 74.5297 35.5944C74.6897 33.2444 75.0597 30.9044 75.2697 28.5544C75.5397 25.6044 75.2397 25.3344 72.3797 25.7644C71.2097 25.9344 70.0597 26.2444 68.8897 26.2944C65.5897 26.4544 63.6598 24.5444 64.0498 21.2644C64.6498 16.2644 66.2897 11.5544 68.5197 7.0444C69.2197 5.6344 70.2597 4.51439 71.9697 5.21439C73.6997 5.92439 73.1497 7.37439 72.7697 8.71439C71.8597 11.8544 71.0497 15.0244 70.0997 18.1544C69.5697 19.9144 69.6497 20.8544 71.8397 20.0644C72.4297 19.8544 73.0797 19.7844 73.7097 19.7144C78.7497 19.0944 81.7697 21.6944 81.7497 26.8144C81.7397 28.9844 81.3698 31.1444 81.1898 33.3144C81.1298 33.9944 80.7397 34.8244 81.5497 35.2844C82.1797 35.6344 82.7598 35.1144 83.3098 34.8344C85.2598 33.8644 87.1197 32.6744 89.1497 31.9244C93.2597 30.4144 96.3397 32.2744 97.2297 36.5544C97.8097 39.3644 97.4897 42.1644 97.1697 44.9644C96.5197 50.5644 96.7197 56.2144 96.2597 61.8244C96.1197 63.6044 96.3597 66.4044 94.2297 66.5944C91.9297 66.7944 91.5598 63.9944 91.0598 62.1444C89.9098 57.7744 90.0997 53.3044 90.1697 48.8544Z" fill="#F3CC4B"/>
</svg>
