<svg width="66" height="61" viewBox="0 0 66 61" fill="none" xmlns="http://www.w3.org/2000/svg">
<path d="M62.7072 41.7082C59.2533 44.582 56.1419 45.069 52.7431 43.8432C49.8356 42.7963 46.9096 42.0395 43.744 42.5025C40.7932 42.9344 38.7817 44.1722 37.8276 47.1922C36.851 50.2994 35.236 53.1429 33.0722 55.6229C31.1098 57.8681 28.7158 59.4127 25.7376 59.8843C21.4355 60.5629 18.7449 58.4353 18.3329 54.1024C18.1293 51.9597 18.6083 49.9155 19.1484 47.8726C19.8424 45.256 20.7297 42.6862 20.8703 39.9505C21.0582 36.2825 20.3173 35.3215 16.6555 34.9224C11.0322 34.3112 6.20212 32.2557 2.64089 27.6765C1.77354 26.5621 1.14176 25.348 0.781312 24.0047C-0.308181 19.9126 1.80871 16.5007 5.96744 15.6483C8.20566 15.1855 10.3972 15.5516 12.5785 16.072C13.4896 16.2914 14.4208 16.6916 15.2201 15.7234C15.518 15.366 16.0032 15.5586 16.4117 15.6684C20.8229 16.841 24.2652 15.0677 27.3065 12.0789C29.6305 9.79313 31.3918 7.04375 33.5114 4.58302C35.7847 1.94405 38.6148 0.417819 42.0998 0.20678C47.3699 -0.110406 50.8799 3.87542 49.9109 9.10656C49.4701 11.4886 48.4041 13.6646 47.4661 15.8811C46.6731 17.7633 45.8802 19.6454 45.7082 21.7284C45.5624 23.4892 46.2661 24.5925 47.9347 25.1578C50.1683 25.9186 52.5165 26.1726 54.8005 26.7029C57.9777 27.4414 60.8331 28.7375 62.9877 31.2984C66.0759 34.9706 65.7106 39.1629 62.7072 41.7082ZM23.2346 33.6719C24.836 35.4264 24.9775 37.5773 24.9221 39.7704C24.8405 43.0673 23.7537 46.1451 22.8924 49.2776C22.4435 50.9104 22.0982 52.5436 22.4083 54.2635C22.6022 55.3319 23.2037 55.8323 24.2636 55.8259C26.3077 55.8153 27.9827 54.9924 29.359 53.5053C31.6023 51.08 33.1334 48.2285 34.2524 45.1584C35.5305 41.6564 38.0673 39.7536 41.6215 38.9702C45.2386 38.1693 48.785 38.2513 52.2896 39.5015C53.5321 39.9458 54.7623 40.4689 56.0981 40.5785C58.3449 40.7615 60.7061 39.3126 61.4427 37.3309C62.0985 35.5533 61.3027 33.8903 59.1231 32.3721C57.6673 31.3565 56.0576 30.7169 54.343 30.3355C52.2276 29.8638 50.0791 29.5396 47.9844 28.9992C43.2153 27.7781 41.4046 24.8219 42.3233 19.9672C42.7638 17.6369 43.8049 15.5244 44.768 13.3903C45.5577 11.6397 46.4711 9.92452 46.7831 8.00086C47.2921 4.90983 45.5874 2.95706 42.4714 3.00116C39.4683 3.04669 37.2232 4.51146 35.4092 6.78031C33.9855 8.56414 32.6319 10.4018 31.1558 12.1429C28.6646 15.0905 25.5182 16.9205 21.9084 18.4283C17.8089 20.1338 13.9269 20.3113 9.79166 19.2547C9.21712 19.1101 8.59091 19.1111 7.99601 19.1292C4.78048 19.2296 3.48469 21.5436 5.15893 24.3031C6.56989 26.6184 8.56694 28.3215 11.0583 29.4366C13.2881 30.4325 15.6449 30.8426 18.0455 31.1393C20.0645 31.3899 21.9513 31.9385 23.2346 33.6719Z" fill="#D6492C"/>
</svg>
