<svg width="341" height="156" viewBox="0 0 341 156" fill="none" xmlns="http://www.w3.org/2000/svg">
<g clip-path="url(#clip0_1241_334)">
<path d="M333.821 12.0092C333.556 10.9663 333.273 10.0153 333.085 9.04393C332.925 8.22592 332.798 7.39257 332.798 6.56945C332.803 5.74121 333.345 5.17371 334.258 5.04079C335.022 4.92831 335.647 5.22484 335.996 5.87414C336.262 6.37005 336.466 6.89665 336.671 7.41813C337.795 10.2965 338.929 13.1698 340.346 15.9408C341.591 18.3846 341.104 19.5554 338.403 20.4603C334.535 21.7589 330.639 22.9757 326.71 24.1056C325.781 24.3714 324.314 25.0463 323.8 23.7528C323.329 22.5718 324.746 22.0248 325.67 21.5595C327.607 20.5881 329.627 19.7497 331.602 18.8396C332.117 18.6044 332.798 18.5329 333.036 17.5768C331.436 17.04 329.815 16.4469 328.155 15.9408C304.227 8.59403 279.635 4.84651 254.434 4.74426C188.373 4.48351 129.809 24.0391 78.6828 62.4294C47.1571 86.0956 22.9082 115.161 6.01926 149.374C5.35521 150.724 4.69669 152.078 3.99944 153.418C3.69509 154.001 3.35753 154.579 2.96463 155.11C2.4832 155.76 1.83022 156.23 0.933752 155.877C0.048354 155.529 -0.150861 154.778 0.0926239 154.006C0.479986 152.758 0.911617 151.521 1.44286 150.32C6.46196 138.949 12.6099 128.106 19.7042 117.737C49.2876 74.4798 89.9329 43.0477 140.218 22.0912C167.156 10.864 195.423 3.98759 224.845 1.25237C260.51 -2.06569 295.434 1.1859 329.605 11.2577C330.883 11.636 332.145 12.3313 333.821 12.0092Z" fill="#0D9D63"/>
</g>
<defs>
<clipPath id="clip0_1241_334">
<rect width="341" height="156" fill="white"/>
</clipPath>
</defs>
</svg>
