<svg width="60" height="85" viewBox="0 0 60 85" fill="none" xmlns="http://www.w3.org/2000/svg">
<path d="M41.7998 15.257C40.3193 13.7058 38.7792 12.1938 37.3546 10.5755C35.6143 8.59481 34.4463 6.33347 35.5961 3.69136C36.7219 1.10081 39.1552 0.613698 41.658 0.569803C46.1677 0.496426 50.6733 0.434972 55.1687 0.915537C56.0448 1.01299 56.9406 1.13056 57.7762 1.40694C59.1386 1.85263 59.9869 2.83875 59.8138 4.33569C59.6488 5.78887 58.5556 6.35473 57.2309 6.36789C54.0936 6.40472 50.9567 6.3618 47.8196 6.35877C46.6179 6.36134 45.4043 6.35982 44.1944 6.42608C42.9329 6.48778 42.8154 7.05252 43.6604 7.91102C44.912 9.17666 46.2473 10.3715 47.4313 11.7001C50.7267 15.3843 49.9597 19.3701 45.4106 21.193C42.4428 22.3798 39.2631 23.0341 36.1816 23.9286C35.578 24.1052 34.8879 24.1056 34.3691 24.8373C36.2892 26.5209 38.2291 28.2048 40.1491 29.9085C40.88 30.5544 41.6029 31.2042 42.2582 31.9171C45.7869 35.7753 44.8527 39.8828 39.9436 41.5144C36.7463 42.5751 33.4472 43.3277 30.1912 44.2083C29.5042 44.396 28.7584 44.4434 28.1645 45.1224C29.1307 46.369 30.6236 46.8799 31.8214 47.7742C36.1183 51.0071 35.7823 55.2688 31.0166 57.6554C27.6222 59.3596 23.918 60.2313 20.3943 61.5714C18.7576 62.1949 18.5407 62.7984 19.9076 64.0175C20.9229 64.9218 21.8821 65.9529 22.6744 67.0659C25.8001 71.4897 24.9226 75.3307 20.0625 77.5449C15.095 79.8016 9.99404 81.766 4.77163 83.3821C3.9257 83.6478 3.0955 83.9455 2.23795 84.1472C1.70195 84.2808 1.17434 85.2157 0.603223 84.3124C0.205426 83.6821 0.557196 83.0522 0.960072 82.5265C2.49994 80.4787 4.63133 79.1949 6.80215 77.9713C10.0265 76.1615 13.2509 74.3517 16.5186 72.6102C18.069 71.7903 18.0012 70.9684 16.8082 69.8828C15.4335 68.6278 14.0629 67.3608 12.756 66.0427C9.41542 62.6889 9.88221 59.3375 14.1938 57.4123C17.7066 55.8488 21.4158 54.7262 25.0387 53.3872C25.6822 53.1512 26.6856 53.1664 26.7566 52.346C26.8237 51.5176 25.813 51.3668 25.2317 50.9857C24.0888 50.2235 22.8303 49.6075 21.7752 48.7427C18.6019 46.1321 18.8718 42.4797 22.3672 40.358C24.8805 38.8274 27.7856 38.3773 30.5574 37.575C32.257 37.0797 33.976 36.6843 35.6951 36.2689C37.045 35.9451 37.0436 35.3591 36.0676 34.535C34.5146 33.2381 32.9617 31.9412 31.4088 30.6443C30.7251 30.0746 30.0136 29.5285 29.3579 28.9352C24.7439 24.754 25.5871 20.5817 31.4531 18.7096C34.2094 17.8354 37.0009 17.0732 39.7806 16.267C40.4716 16.0674 41.2331 16.052 41.7998 15.257Z" fill="#469763"/>
</svg>
