<svg width="44" height="48" viewBox="0 0 44 48" fill="none" xmlns="http://www.w3.org/2000/svg">
<path d="M15.8443 0.735341C18.8251 1.52397 20.2271 3.35633 20.6023 6.0142C20.7507 7.07312 20.7504 8.15184 20.873 9.21769C20.9649 10.0347 21.0518 10.8692 21.2971 11.6489C21.8241 13.3175 22.7018 13.8307 24.4356 13.4802C26.8007 13.0043 29.1367 12.393 31.5065 11.9514C34.1313 11.4677 36.7244 11.5594 39.1778 12.837C41.114 13.8479 42.4414 15.4003 43.2902 17.3517C44.1698 19.3635 43.8126 21.2095 42.3981 22.8785C40.9835 24.5475 39.1259 25.6501 37.3493 26.8554C34.5592 28.7533 32.9716 31.2314 33.1216 34.731C33.2182 37.071 33.1238 39.4284 32.0511 41.6166C30.9654 43.8342 29.3746 45.6049 27.1683 46.7092C23.139 48.7233 19.6494 47.3641 17.975 43.1899C17.4988 42.0066 17.2361 40.7415 16.8667 39.5174C16.7129 39.0081 16.5854 38.4732 16.3449 38.0011C15.6634 36.6475 14.6051 36.3713 13.3873 37.266C11.953 38.3218 10.5459 39.3993 8.88172 40.0989C6.77858 40.9871 4.6706 41.0542 2.58774 40.0731C0.298968 38.9922 -0.576111 36.0913 0.407275 33.4023C1.25 31.0981 2.78141 29.3864 4.76819 28.0088C8.47675 25.4342 9.7657 21.9401 8.42117 17.7118C7.10705 13.5626 6.58814 9.41843 7.90343 5.19676C9.17029 1.183 12.0013 -0.331336 15.8443 0.735341ZM3.39567 34.3862C2.74595 36.6312 3.76819 37.8065 6.14037 37.5445C7.02159 37.4463 7.83282 37.1543 8.61774 36.7513C9.80863 36.1411 10.8238 35.2888 11.9219 34.5492C13.2307 33.6704 14.629 33.3771 16.1912 33.8645C18.3739 34.5389 19.3301 36.1905 19.8442 38.2134C20.2446 39.7713 20.5217 41.3608 21.3868 42.7749C22.4331 44.4799 23.6875 44.8908 25.4878 44.0454C26.2065 43.7088 26.8237 43.2402 27.3984 42.6843C29.4785 40.6639 29.7756 38.0756 29.7942 35.3909C29.8038 33.7825 29.7583 32.1493 30.3148 30.6321C31.3971 27.6739 33.384 25.4061 36.0079 23.6597C37.2791 22.8128 38.5808 21.9933 39.6272 20.8576C40.2356 20.1981 40.5241 19.4542 40.1727 18.593C39.5228 16.9892 38.4732 15.7921 36.7287 15.2398C34.6072 14.5683 32.5261 14.8643 30.4393 15.3C28.4847 15.7067 26.552 16.2231 24.5795 16.54C21.737 17.0006 19.734 15.8015 18.6069 13.1884C18.0212 11.8333 17.8245 10.417 17.7379 8.96548C17.6616 7.73352 17.6779 6.49441 17.298 5.29085C16.8021 3.71582 15.4482 3.50793 14.1191 3.33055C12.91 3.16775 11.9286 3.53955 11.3399 4.72743C10.7827 5.85344 10.4106 7.01692 10.3029 8.25882C10.0735 10.8612 10.2826 13.4304 10.921 15.9826C11.4812 18.2163 12.2257 20.5249 11.7824 22.7991C11.1745 25.9037 9.61103 28.5346 6.77417 30.2922C5.21279 31.256 3.87541 32.4943 3.39567 34.3862Z" fill="#4C9A67"/>
</svg>
