<svg width="39" height="43" viewBox="0 0 39 43" fill="none" xmlns="http://www.w3.org/2000/svg">
<path d="M18.738 13.6528C21.646 10.8878 24.4001 8.24506 27.1773 5.6339C28.3351 4.54526 29.5275 3.49606 30.8622 2.63619C31.093 2.48631 31.42 2.15893 31.6623 2.59281C31.8739 2.97147 31.52 3.22391 31.2738 3.35802C30.4199 3.81951 29.7968 4.54526 29.1352 5.2158C26.0772 8.31211 23.05 11.44 19.9843 14.5284C19.5189 14.9978 19.4112 15.3607 19.6843 15.9996C20.7305 18.457 21.7114 20.9419 22.7153 23.419C23.1962 23.344 23.3769 22.9614 23.6308 22.6971C28.0466 18.1059 32.3893 13.4398 37.0397 9.09703C37.4513 8.71049 37.886 8.34761 38.3283 8.00051C38.4745 7.88612 38.6591 7.69285 38.8784 7.91768C39.2053 8.25689 38.7822 8.33578 38.6668 8.46988C34.0818 13.8776 29.2929 19.092 24.4116 24.2197C23.6308 25.0401 23.5962 25.6633 24.0193 26.6257C25.6733 30.4083 27.1773 34.2541 28.539 38.159C28.6197 38.3917 28.739 38.6284 28.7505 38.869C28.7659 39.1845 29.0429 39.6499 28.5428 39.7762C28.1082 39.8866 28.062 39.4488 27.8966 39.1253C25.8541 35.1061 24.027 30.9842 22.3576 27.1621C20.5959 28.8069 18.788 30.4833 16.9956 32.1754C16.5571 32.5856 16.9571 32.9879 17.1033 33.3469C18.1995 36.0133 19.3266 38.6678 20.4421 41.3263C20.5228 41.5235 20.5882 41.7247 20.6728 41.9219C20.8267 42.2926 21.0152 42.7305 20.5536 42.9514C20.1266 43.1525 19.9651 42.6831 19.7958 42.3952C18.2957 39.855 17.0071 37.1966 15.7762 34.5105C15.7032 34.3487 15.6147 34.1949 15.5108 33.9937C15.0531 34.0963 14.8607 34.5065 14.603 34.8023C12.7836 36.881 10.9873 38.9833 9.16408 41.062C8.77174 41.5117 8.31016 41.9061 7.84473 42.2808C7.55624 42.5135 7.12157 42.5727 6.8677 42.3124C6.55229 41.9929 6.84462 41.6852 7.07926 41.3933C8.77942 39.2594 10.468 37.1098 12.1605 34.968C12.4682 34.5775 12.7413 34.1318 13.1221 33.836C14.6184 32.6684 14.6146 31.422 13.6837 29.8246C12.776 28.2666 12.0913 26.5626 11.4028 24.8823C11.0373 23.9909 10.7911 24.125 10.2373 24.7087C7.64855 27.4303 4.77521 29.8325 1.92109 32.2504C1.44028 32.6566 0.763297 33.4218 0.217092 32.7868C-0.429122 32.0334 0.528643 31.5601 0.994071 31.0986C3.77895 28.3336 6.80616 25.8329 9.53718 23.0048C10.0142 22.5078 10.1834 22.137 9.8603 21.4468C7.86011 17.1435 6.41383 12.6114 4.81368 8.14645C4.60597 7.56663 4.35594 6.8882 5.07139 6.54504C5.8253 6.18216 6.21381 6.76592 6.49845 7.39307C8.12168 10.9667 9.21793 14.7532 10.7411 18.3662C10.9489 18.8593 11.1758 19.3484 11.3335 19.8572C11.5451 20.5396 11.7682 20.7368 12.349 20.1294C13.7645 18.6463 15.2146 17.1908 16.6917 15.7669C17.1302 15.3409 17.1302 14.9978 16.9071 14.4653C15.5108 11.1481 14.1684 7.80329 12.5605 4.5847C12.1143 3.69328 11.6989 2.78214 11.4643 1.80394C11.345 1.30696 11.322 0.809963 11.622 0.356364C11.822 0.0565933 12.1067 -0.0380691 12.4451 0.0132074C12.8067 0.0684283 12.8798 0.324809 12.849 0.640357C12.8183 0.940127 12.9144 1.20835 13.0529 1.45684C15.2223 5.34991 17.1956 9.33369 18.738 13.6528ZM17.9611 16.9463C16.1955 18.6739 14.4607 20.3739 12.7221 22.07C12.4567 22.3303 12.4413 22.5788 12.5952 22.9299C13.6376 25.3122 14.6607 27.7065 15.6762 30.1007C15.8801 30.5819 16.0609 30.5858 16.4032 30.2269C17.9418 28.6137 19.4997 27.0162 21.0575 25.4187C21.296 25.1742 21.4306 24.9612 21.2652 24.5825C20.1382 22.0108 19.0342 19.4273 17.9611 16.9463Z" fill="#4C9A67"/>
</svg>
