<svg width="77" height="66" viewBox="0 0 77 66" fill="none" xmlns="http://www.w3.org/2000/svg">
<g clip-path="url(#clip0_753_1178)">
<path d="M76.0465 18.0411C76.366 22.1172 75.0495 25.6645 73.3861 29.1677C69.9654 36.3725 65.1953 42.5858 59.3731 47.9398C50.257 56.3288 39.8299 62.4264 27.5741 64.9602C22.9472 65.9131 18.2817 66.0398 13.7209 64.3213C8.82959 62.476 6.19115 58.824 5.17213 53.8666C3.71244 46.7555 5.99285 40.5147 9.94225 34.7751C14.6573 27.9229 20.7274 22.5468 27.9266 18.333C33.1264 15.2925 38.6677 13.0341 44.5119 12.1748C50.4167 11.3045 56.4648 11.6626 60.8383 16.8458C62.3145 18.5974 63.1407 20.63 63.3721 22.9765C63.8899 28.3525 61.2845 32.4176 57.9795 36.1467C53.0387 41.7155 46.8915 45.5602 39.9786 48.2537C35.9962 49.8071 31.9036 50.5837 27.6347 50.4846C26.2246 50.4515 24.8696 50.1486 23.5586 49.6859C19.813 48.3639 18.794 44.8717 20.3087 41.5723C22.1815 37.4741 25.2001 34.2353 28.4334 31.1672C32.2781 27.5153 36.85 25.1522 41.8459 23.5659C43.7463 22.9655 45.7458 22.8167 47.6516 23.5438C50.6646 24.6951 51.2319 26.992 49.954 29.6745C48.5384 32.6434 46.0212 34.8082 43.6086 36.9674C42.226 38.2012 40.7112 39.3029 39.0312 40.1511C37.9847 40.6799 36.883 40.6359 35.8199 40.4816C34.7348 40.3219 34.3878 39.4681 34.6356 38.4546C34.7568 37.9644 35.3187 37.353 35.6767 37.6339C36.8334 38.5427 37.6652 37.7496 38.4639 37.2263C41.8955 34.9624 44.8149 32.1422 47.0237 28.661C47.9215 27.2509 47.5249 26.6395 45.8229 26.4467C43.9721 26.2374 42.2811 26.8928 40.6341 27.5538C33.2971 30.5062 27.7283 35.5408 23.7899 42.3434C22.2146 45.07 23.4705 46.8877 26.6212 47.1852C33.3688 47.8241 39.3176 45.5767 45.0572 42.3985C50.0532 39.6334 54.4157 36.1081 57.6876 31.3986C59.5108 28.7766 60.7722 25.8573 59.99 22.5634C59.1583 19.0601 55.7377 16.4768 51.7938 15.8929C47.7287 15.2925 43.939 16.1518 40.0668 17.3361C33.7598 19.275 28.1469 22.4532 23.0849 26.5073C17.7089 30.8092 12.8947 35.7611 10.1791 42.2828C7.9042 47.736 7.34237 53.2112 11.0384 58.3724C12.6798 60.6638 15.1365 61.5726 17.7805 62.2116C23.6357 63.6107 29.0228 61.7489 34.3933 59.8596C40.6341 57.6673 46.3351 54.3844 51.5239 50.3579C60.2269 43.6048 67.4206 35.5518 71.5573 25.1412C72.8628 21.8638 73.4852 18.4818 72.5763 14.951C71.4637 10.6436 68.5223 7.96655 64.6059 6.35264C60.9374 4.83788 57.0817 4.35867 53.0662 4.68916C44.3467 5.40523 35.8585 7.24498 27.4639 9.597C21.3333 11.3211 15.3403 13.4142 9.72743 16.4878C6.7034 18.1403 3.91625 20.1177 1.29433 22.343C0.952816 22.635 0.550724 23.1142 0.170651 22.6515C-0.143314 22.2714 0.46809 22.0125 0.699436 21.7206C3.8832 17.65 7.90971 14.637 12.4099 12.1418C18.7995 8.5945 25.6903 6.4573 32.6912 4.56247C37.5881 3.2405 42.551 2.18843 47.5304 1.26304C50.1799 0.772814 52.9009 0.326647 55.5724 0.403765C61.3726 0.580026 66.8423 2.0397 71.2929 6.04419C74.8678 9.27752 76.5313 13.315 76.0465 18.0411Z" fill="#469763"/>
</g>
<defs>
<clipPath id="clip0_753_1178">
<rect width="76.0411" height="65.2505" fill="white" transform="translate(76.1289 65.6553) rotate(180)"/>
</clipPath>
</defs>
</svg>
