<svg width="20" height="17" viewBox="0 0 20 17" fill="none" xmlns="http://www.w3.org/2000/svg">
<path d="M5.91391 12.9025C4.04116 12.6626 2.78936 11.7756 2.08393 10.0062C2.69321 10.0062 3.2207 10.0062 3.7473 10.0062C1.8422 9.25048 0.764738 7.94207 0.629943 5.87072C1.20597 6.03337 1.74155 6.18434 2.27714 6.33532C2.3032 6.30836 2.32926 6.2814 2.35622 6.25444C0.625449 4.73395 0.274083 2.93399 1.19878 0.750305C3.50198 3.37611 6.28864 4.88043 9.70525 5.097C9.70525 4.71957 9.69626 4.39337 9.70705 4.06716C9.76366 2.33999 10.6057 1.08909 12.1522 0.397142C13.6592 -0.277732 15.1429 -0.0980053 16.4441 0.962383C16.8081 1.25893 17.128 1.32453 17.5395 1.16098C18.1605 0.913857 18.7859 0.677516 19.4617 0.416912C19.176 1.31734 18.573 1.9347 17.9574 2.60329C18.6071 2.42805 19.2568 2.25372 19.9065 2.07849C19.938 2.10634 19.9685 2.1342 20 2.16206C19.4842 2.69764 19.0007 3.27007 18.44 3.75264C18.1317 4.01864 18.0149 4.28014 18.0077 4.66206C17.952 7.37863 17.1405 9.84718 15.4637 11.9904C13.1937 14.8903 10.2013 16.3533 6.50611 16.4297C4.38983 16.4737 2.41283 16.028 0.555356 15.0278C0.372035 14.929 0.191409 14.8238 0 14.663C2.14504 14.7636 4.10047 14.2622 5.91391 12.9025Z" fill="black"/>
</svg>
