<svg width="116" height="77" viewBox="0 0 116 77" fill="none" xmlns="http://www.w3.org/2000/svg">
<path d="M79.1832 48.3208C76.4503 50.8671 73.949 52.5831 71.2368 53.9734C69.904 54.6525 69.4934 55.565 69.6055 57.0059C69.9209 61.0392 71.8455 63.9976 75.3049 66.0044C78.2116 67.6926 81.4248 68.4138 84.7106 68.7421C92.1807 69.5003 99.6665 70.1141 107.137 70.8591C109.564 71.0998 111.981 71.5176 114.277 72.4524C115.099 72.7825 115.835 73.0914 115.776 74.181C115.716 75.3757 114.781 75.0896 114.096 75.1824C102.478 76.7481 90.8316 76.5852 79.3443 74.5132C70.7648 72.9665 64.7621 68.0559 63.5553 58.7766C63.3593 57.2487 62.4926 57.5814 61.5951 57.8019C57.6162 58.7489 53.5781 58.9656 49.525 58.5513C39.7268 57.5477 33.0099 51.4285 31.3306 41.7531C31.0029 39.8746 30.1407 39.9577 28.7721 40.0646C19.9961 40.6825 12.2185 38.3879 5.96035 31.9681C-3.69148 22.0709 0.727432 5.01456 13.8549 1.36029C15.585 0.878824 17.3297 0.680139 19.1053 0.955084C20.2979 1.13416 21.3812 1.5478 22.2255 2.46309C23.244 3.55889 23.7404 4.82275 22.7452 6.0927C21.7433 7.3691 20.1148 6.95226 19.367 6.1504C17.9873 4.68017 16.6709 5.17561 15.2695 5.64983C10.1462 7.3911 6.83353 10.7549 5.96622 16.2519C4.98087 22.4695 7.53979 27.0621 12.5502 30.516C17.8399 34.1523 23.7393 34.9283 29.9601 34.2711C31.3425 34.125 31.4567 33.2532 31.7048 32.2393C32.9188 27.1953 35.4632 23.0753 40.077 20.4313C42.4801 19.0552 45.0246 18.2269 47.7993 18.4804C50.9546 18.7669 53.4795 20.1263 54.6654 23.2422C55.632 25.7694 54.5719 28.4574 51.8169 30.7668C47.888 34.0538 43.4299 36.4443 38.6049 38.0398C36.7344 38.6567 36.5144 39.5661 36.8993 41.1827C38.2053 46.7647 41.5152 50.5166 47.094 51.9504C52.2871 53.2788 57.4611 52.7408 62.5679 51.1832C63.9354 50.7675 64.3071 49.828 64.6961 48.6523C66.2942 43.8058 68.7485 39.579 73.3427 36.9281C73.7743 36.6796 74.2383 36.4514 74.7081 36.2693C77.1827 35.3018 79.6602 34.9126 81.8256 36.9029C83.5836 38.5244 83.6593 41.2656 82.22 44.2162C81.3281 45.9545 80.1446 47.4707 79.1832 48.3208ZM37.4441 32.421C38.7686 31.8403 39.8065 31.4844 40.7424 30.9558C43.0123 29.6825 45.2696 28.3826 47.4757 27.0029C48.3528 26.4536 49.7695 25.8614 49.227 24.6033C48.7034 23.3915 47.2283 23.5753 46.0497 23.7184C42.026 24.2311 38.7493 27.4181 37.4441 32.421ZM76.1834 41.9332C74.6748 42.8851 73.1271 43.8232 72.691 45.7931C74.0782 44.6484 75.3925 43.5353 76.1834 41.9332Z" fill="#FFC900"/>
</svg>
