<svg width="101" height="88" viewBox="0 0 101 88" fill="none" xmlns="http://www.w3.org/2000/svg">
<g clip-path="url(#clip0_694_7872)">
<path d="M4.47666 65.8979C3.70681 60.8835 5.00986 56.3731 6.74637 51.8853C10.317 42.6558 15.6487 34.5292 22.3612 27.3691C32.8707 16.1508 45.2129 7.64753 60.1455 3.38608C65.7833 1.78178 71.5448 1.19633 77.3463 2.90382C83.5683 4.73771 87.1687 9.01423 88.8852 15.0549C91.3448 23.7201 89.0965 31.6521 84.7368 39.1172C79.532 48.0294 72.5149 55.2395 63.9937 61.1152C57.8388 65.3553 51.1895 68.659 44.0368 70.2593C36.8101 71.8788 29.2933 71.9915 23.4052 65.9796C21.4176 63.9477 20.2085 61.5086 19.7066 58.6263C18.5719 52.0215 21.4223 46.752 25.1692 41.8339C30.7714 34.489 38.0247 29.1667 46.3312 25.1985C51.1163 22.9105 56.1092 21.5734 61.4006 21.3039C63.1486 21.2152 64.8531 21.4656 66.5178 21.9176C71.2741 23.2093 72.8559 27.4369 71.2847 31.6589C69.3439 36.902 65.9063 41.1871 62.1873 45.2807C57.7654 50.1529 52.3253 53.497 46.289 55.919C43.9927 56.8366 41.5322 57.2043 39.1071 56.4797C35.273 55.3321 34.3599 52.542 35.6947 49.1052C37.1736 45.3014 40.0896 42.3914 42.8765 39.4979C44.4739 37.8441 46.2471 36.3417 48.248 35.1377C49.4944 34.3872 50.8617 34.3405 52.1913 34.4337C53.5487 34.5316 54.0566 35.5562 53.843 36.8331C53.7381 37.4509 53.0991 38.259 52.6302 37.9443C51.1154 36.926 50.159 37.9839 49.2188 38.7048C45.1805 41.8215 41.8272 45.5795 39.4139 50.0901C38.4325 51.9174 38.9794 52.6376 41.1032 52.7197C43.4126 52.8087 45.4449 51.8422 47.4221 50.873C56.2296 46.5455 62.6579 39.804 66.9062 31.0245C68.605 27.5059 66.884 25.372 62.9579 25.2935C54.5497 25.1228 47.395 28.4503 40.5849 32.9105C34.6569 36.7911 29.5827 41.5542 25.9667 47.6824C23.9516 51.0943 22.659 54.8227 23.9295 58.8267C25.2806 63.0852 29.7507 65.9676 34.6845 66.3277C39.7698 66.6971 44.3802 65.2856 49.063 63.4643C56.6891 60.4856 63.3424 56.0371 69.2338 50.5555C75.4908 44.7383 80.9929 38.1684 83.7539 29.8488C86.0678 22.8921 86.2599 16.0654 81.2122 10.0185C78.9705 7.33393 75.8471 6.43503 72.5168 5.88733C65.1429 4.6941 58.648 7.49287 52.1761 10.3242C44.6551 13.6104 37.9023 18.1965 31.8517 23.6557C21.703 32.8117 13.5414 43.4376 9.37923 56.6997C8.06501 60.8751 7.60557 65.1173 9.05462 69.4028C10.8272 74.6306 14.7129 77.6729 19.7073 79.3101C24.3859 80.8474 29.2011 81.0861 34.1395 80.3081C44.8633 78.6209 55.1976 75.5644 65.3689 71.8827C72.7966 69.186 80.02 66.0453 86.683 61.7263C90.2731 59.4036 93.5402 56.7006 96.5801 53.7061C96.9759 53.3134 97.4294 52.6835 97.9422 53.2211C98.3657 53.6626 97.6329 54.0391 97.3734 54.4216C93.8079 59.7511 89.1023 63.8494 83.763 67.3505C76.1825 72.3271 67.8521 75.6048 59.3632 78.5927C53.4253 80.6785 47.3809 82.4364 41.3043 84.039C38.0709 84.889 34.7448 85.6912 31.432 85.8412C24.2387 86.156 17.3363 84.8524 11.4611 80.3062C6.74051 76.6337 4.31112 71.7905 4.47666 65.8979Z" fill="#F3CC4B"/>
</g>
<defs>
<clipPath id="clip0_694_7872">
<rect width="94.3527" height="80.9636" fill="white" transform="translate(0 6.9873) rotate(-4.24679)"/>
</clipPath>
</defs>
</svg>
