<svg width="43" height="40" viewBox="0 0 43 40" fill="none" xmlns="http://www.w3.org/2000/svg">
<path d="M40.4545 22.012C39.2775 23.4142 37.7074 24.0755 35.8199 23.944C34.7695 23.871 33.7287 23.673 32.6802 23.5522C31.2065 23.384 29.7628 23.4101 28.4178 24.1408C27.1649 24.824 27.0631 25.2139 27.7833 26.4795C29.3939 29.3083 29.6818 32.2598 28.6123 35.2935C28.2867 36.2182 27.8163 37.0848 27.0774 37.76C24.6162 40.0007 21.4197 39.5194 19.4701 36.625C18.8906 35.7649 18.5505 34.8037 18.1815 33.8468C17.364 31.715 16.6089 29.5638 15.5183 27.5428C14.4548 25.5654 12.9552 24.5639 10.6331 24.767C8.16586 24.981 5.74231 24.6997 3.53411 23.3621C1.52566 22.1457 0.573882 20.4296 0.90917 18.4656C1.27787 16.3037 2.6785 15.1326 4.74624 14.6763C5.60522 14.4871 6.47933 14.3607 7.35346 14.2344C8.84153 14.0149 10.2526 13.5746 11.6005 12.9206C13.4097 12.0443 14.6936 10.7261 15.3786 8.79272C16.4895 5.67188 18.3653 3.14897 21.3806 1.60285C21.9536 1.3107 22.552 1.0754 23.188 0.957222C24.6535 0.683389 25.8873 1.23882 26.6705 2.52995C27.4777 3.86211 27.657 5.3491 27.7363 6.84706C27.7961 7.96718 27.7816 9.08623 27.8094 10.2029C27.8297 10.9225 27.9837 11.6212 28.2549 12.2895C28.7515 13.5068 29.5542 13.9701 30.8417 13.7275C31.7392 13.5574 32.6132 13.2827 33.5095 13.0967C35.7386 12.6339 37.8926 12.7821 39.9287 13.9784C42.2696 15.3535 42.9069 17.0848 41.9597 19.5737C41.624 20.4698 41.1328 21.2687 40.4545 22.012ZM38.4062 20.2812C38.8488 19.8003 39.1675 19.3291 39.3967 18.7941C39.9659 17.4608 39.7874 16.9728 38.4975 16.2297C37.003 15.3711 35.4357 15.4122 33.8391 15.7438C32.8435 15.9512 31.8589 16.2376 30.8544 16.3581C28.7608 16.6039 27.1414 15.7046 26.1175 13.8362C25.4265 12.5717 25.2008 11.2119 25.1545 9.80216C25.1116 8.51413 25.1237 7.21504 24.9809 5.93798C24.6868 3.34192 23.9882 3.03437 21.8498 4.4566C19.9139 5.74546 18.7388 7.61392 17.9701 9.74553C17.0355 12.3344 15.2736 14.1221 12.8469 15.3354C10.9553 16.2826 8.95237 16.8651 6.85808 17.1746C6.1547 17.278 5.44206 17.3635 4.79095 17.676C3.46024 18.3105 3.23543 19.7488 4.34132 20.7354C5.40755 21.6873 6.71276 22.0929 8.09827 22.1787C9.28393 22.252 10.4778 22.2188 11.6651 22.2045C13.854 22.1758 15.5192 23.1944 16.8515 24.8545C17.5601 25.7392 18.096 26.729 18.5503 27.7658C19.4144 29.736 20.1698 31.7441 20.8557 33.7801C21.0853 34.4613 21.3562 35.1243 21.7935 35.7064C22.7659 37.0106 24.0624 37.1862 25.3366 36.2104C25.8996 35.7811 26.1735 35.1667 26.4335 34.5452C27.6006 31.7603 26.735 29.255 25.2721 26.8179C24.2133 25.0522 24.5538 23.5278 26.2481 22.3824C27.6844 21.4107 29.2828 20.9571 31.0345 20.9347C32.5452 20.918 34.0132 21.2641 35.5004 21.3997C36.6908 21.5019 37.7281 21.247 38.4062 20.2812Z" fill="#FFC900"/>
</svg>
