<svg width="61" height="66" viewBox="0 0 61 66" fill="none" xmlns="http://www.w3.org/2000/svg">
<path d="M29.3082 20.9554C33.8566 16.7115 38.1643 12.6552 42.5081 8.64738C44.319 6.97645 46.1841 5.36605 48.2717 4.04625C48.6327 3.8162 49.1441 3.31371 49.5231 3.97967C49.854 4.56086 49.3005 4.94833 48.9155 5.15417C47.5798 5.8625 46.6052 6.97645 45.5704 8.00565C40.7874 12.7581 36.0526 17.559 31.2575 22.2994C30.5296 23.0198 30.3611 23.5768 30.7882 24.5576C32.4247 28.3293 33.9589 32.1434 35.5291 35.9454C36.2812 35.8303 36.5639 35.2431 36.961 34.8375C43.8678 27.7905 50.6602 20.6285 57.934 13.9629C58.5777 13.3696 59.2576 12.8126 59.9495 12.2798C60.1781 12.1043 60.4669 11.8076 60.8098 12.1527C61.3212 12.6734 60.6594 12.7944 60.4789 13.0003C53.3074 21.3005 45.817 29.304 38.1823 37.1744C36.961 38.4336 36.9069 39.3902 37.5687 40.8674C40.1557 46.6733 42.5081 52.576 44.6379 58.5696C44.7642 58.9268 44.9507 59.29 44.9688 59.6593C44.9928 60.1437 45.426 60.858 44.6439 61.0518C43.964 61.2213 43.8918 60.5493 43.6331 60.0528C40.4384 53.8837 37.5807 47.5571 34.9696 41.6907C32.2141 44.2153 29.3864 46.7883 26.5828 49.3855C25.897 50.0151 26.5226 50.6327 26.7513 51.1836C28.4659 55.2762 30.2287 59.3506 31.9735 63.431C32.0998 63.7337 32.2021 64.0425 32.3344 64.3452C32.5751 64.9143 32.8699 65.5863 32.1479 65.9253C31.4801 66.2341 31.2274 65.5137 30.9627 65.0717C28.6163 61.1729 26.6009 57.0924 24.6757 52.9695C24.5613 52.7213 24.423 52.4852 24.2605 52.1764C23.5446 52.3338 23.2437 52.9635 22.8406 53.4175C19.9949 56.6081 17.1853 59.8349 14.3336 63.0254C13.7199 63.7156 12.9979 64.321 12.27 64.8961C11.8187 65.2533 11.1389 65.3441 10.7418 64.9446C10.2485 64.4542 10.7057 63.982 11.0727 63.534C13.7319 60.2587 16.3731 56.9592 19.0203 53.6718C19.5016 53.0724 19.9287 52.3883 20.5244 51.9343C22.8647 50.1423 22.8587 48.2292 21.4028 45.7772C19.9829 43.3859 18.912 40.7705 17.8351 38.1914C17.2635 36.8232 16.8785 37.029 16.0121 37.9251C11.9631 42.1024 7.46891 45.7894 3.00479 49.5005C2.25275 50.1241 1.19387 51.2986 0.339554 50.3239C-0.671191 49.1675 0.826852 48.4411 1.55483 47.7327C5.91066 43.4888 10.6455 39.6505 14.9171 35.3097C15.6632 34.5469 15.9279 33.9778 15.4225 32.9183C12.294 26.3133 10.0319 19.3571 7.52909 12.5038C7.20421 11.6139 6.81313 10.5726 7.93217 10.0459C9.11137 9.4889 9.71904 10.3849 10.1642 11.3475C12.7031 16.8325 14.4178 22.6445 16.8003 28.1901C17.1251 28.9468 17.4801 29.6975 17.7268 30.4785C18.0577 31.5259 18.4066 31.8286 19.3151 30.8962C21.5291 28.6199 23.7973 26.3859 26.1075 24.2004C26.7934 23.5466 26.7934 23.0199 26.4445 22.2025C24.2605 17.111 22.1608 11.9771 19.646 7.03698C18.9481 5.66876 18.2983 4.27026 17.9313 2.76884C17.7448 2.00603 17.7087 1.2432 18.178 0.546977C18.4908 0.0868641 18.936 -0.0584316 19.4655 0.0202719C20.031 0.105029 20.1453 0.498544 20.0972 0.982873C20.0491 1.44299 20.1995 1.85467 20.4161 2.23608C23.8093 8.21149 26.8957 14.3261 29.3082 20.9554ZM28.0929 26.0106C25.3314 28.6623 22.6181 31.2716 19.8987 33.8749C19.4836 34.2744 19.4595 34.6558 19.7001 35.1947C21.3306 38.8513 22.9309 42.5262 24.5192 46.201C24.8381 46.9396 25.1209 46.9457 25.6563 46.3948C28.0629 43.9186 30.4995 41.4667 32.9361 39.0148C33.3091 38.6395 33.5196 38.3125 33.2609 37.7313C31.4982 33.7841 29.7715 29.8186 28.0929 26.0106Z" fill="#F9C802"/>
</svg>
