<svg width="43" height="63" viewBox="0 0 43 63" fill="none" xmlns="http://www.w3.org/2000/svg">
<path d="M10.1233 15.2045C8.67338 15.6628 7.22984 16.1713 5.75461 16.5731C3.95014 17.0629 2.14565 17.1005 0.822381 15.5435C-0.475567 14.0179 -0.0260105 12.3165 0.727432 10.7092C2.08869 7.81492 3.4563 4.92691 5.16579 2.21468C5.50135 1.6873 5.8559 1.15363 6.29277 0.707874C7.00189 -0.0204087 7.89463 -0.252697 8.7937 0.324907C9.66744 0.883675 9.68644 1.75636 9.28123 2.60393C8.32518 4.61299 7.31847 6.59692 6.33709 8.59341C5.96353 9.35937 5.58367 10.1316 5.2481 10.9227C4.89354 11.7451 5.21643 11.9963 6.02686 11.7263C7.2235 11.3245 8.40114 10.8473 9.61678 10.5083C12.9914 9.56028 15.2898 11.2931 15.0302 14.7587C14.8592 17.0189 14.2831 19.2477 13.8905 21.489C13.8145 21.9285 13.5993 22.368 13.9032 22.9268C15.5747 22.2299 17.2525 21.5204 18.9367 20.8298C19.5762 20.5661 20.2156 20.3087 20.8741 20.1141C24.4324 19.0719 26.756 20.9491 26.2622 24.5842C25.9393 26.9512 25.3885 29.2867 24.9326 31.6348C24.8376 32.1308 24.635 32.6205 24.8819 33.2106C25.9772 32.9846 26.7687 32.1935 27.712 31.7101C31.112 29.9836 33.7206 31.528 33.7523 35.3076C33.7776 38.001 33.1762 40.6316 32.9292 43.2936C32.8153 44.5304 33.1318 44.8569 34.3348 44.3672C35.2275 44.003 36.1835 43.7142 37.1396 43.5573C40.9321 42.9483 43.1038 44.7062 42.9962 48.492C42.8822 52.3594 42.5404 56.2206 41.9389 60.0504C41.8439 60.6719 41.7743 61.2935 41.635 61.9025C41.5527 62.2854 41.9832 62.9133 41.2298 62.9949C40.7042 63.0514 40.413 62.6307 40.2041 62.2101C39.381 60.5903 39.229 58.8324 39.1277 57.0682C38.982 54.4501 38.8364 51.8321 38.7478 49.2077C38.7098 47.9646 38.1653 47.7512 37.1016 48.1718C35.8733 48.6553 34.6387 49.1324 33.3914 49.553C30.213 50.6329 28.2249 49.2893 28.3452 45.943C28.4465 43.2182 28.8897 40.506 29.1683 37.7812C29.219 37.2978 29.5419 36.6637 29.0417 36.3624C28.5352 36.061 28.1237 36.6574 27.6994 36.9086C26.8574 37.3983 26.0722 38.0072 25.1921 38.409C22.5393 39.6145 20.298 38.3023 20.0384 35.4143C19.8484 33.3362 20.4689 31.346 20.8235 29.3306C21.0387 28.0938 21.3237 26.8758 21.5959 25.6516C21.8112 24.691 21.4376 24.5089 20.6082 24.8731C19.2976 25.4569 17.987 26.0408 16.6764 26.6247C16.1002 26.8821 15.5303 27.1646 14.9479 27.3969C10.8451 29.0293 8.45178 27.1897 9.09126 22.8703C9.39517 20.8424 9.7814 18.8271 10.136 16.8054C10.2246 16.3032 10.4525 15.8135 10.1233 15.2045Z" fill="#F3CC4B"/>
</svg>
